<?xml version="1.0" encoding="utf-8"?>
<!-- Generator: Adobe Illustrator 26.0.3, SVG Export Plug-In . SVG Version: 6.00 Build 0)  -->
<svg version="1.1" id="Layer_1" xmlns="http://www.w3.org/2000/svg" xmlns:xlink="http://www.w3.org/1999/xlink" x="0px" y="0px"
	 viewBox="0 0 109.28 121.43" style="enable-background:new 0 0 109.28 121.43;" xml:space="preserve">
<style type="text/css">
	.st0{fill:#30D4D8;}
	.st1{fill:#FF5527;}
	.st2{fill:#46DD00;}
	.st3{fill:#FFEA2C;}
	.st4{fill:#FF3000;}
</style>
<ellipse class="st1" cx="51.52" cy="69.73" rx="47.97" ry="47.83"/>
<g>
	<path class="st2" d="M62.02,19.75C66.6,12.25,72.45,9.31,81.24,6.99s18.58-1.27,26.77,2.87c-3.8,0.65-7.81,1.38-10.65,3.84
		c-3.89,3.37-4.69,9.2-8.7,12.44c-3.91,3.16-9.65,2.95-14.81,2.62c-5.17-0.33-10-0.27-13.78,3.03
		C60.37,26.93,59.55,23.98,62.02,19.75"/>
</g>
<g>
	<path class="st2" d="M60.06,31.8c-3.77-7.53-12.87-5.49-22.75-11.11c-2.39-1.36-4.74-3.08-6.8-5.04c-2-1.91-3.98-3.93-5.25-6.43
		c-1.27-2.49-1.77-5.55-0.71-8.17C26.93,4.53,31,6.36,35.02,7.33c4.03,0.97,8.21,1.26,12.17,2.5c10.86,3.4,14.6,8.08,14.72,19.81"/>
</g>
<path class="st3" d="M38.26,30.34c19.17,0,34.7,15.49,34.7,34.61s-2.46,52.23-21.62,52.66c-19.82,0.44-50.98-15.78-47.78-52.66
	C5.21,45.9,19.1,30.34,38.26,30.34z"/>
<path class="st4" d="M52.18,69.73c0,7.75-6.28,20.91-14.03,20.91c-7.75,0-14.03-13.16-14.03-20.91c0-7.75,6.28-14.03,14.03-14.03
	C45.9,55.69,52.18,61.98,52.18,69.73z"/>
</svg>
