<svg width="240" height="138" viewBox="0 0 240 138" fill="none" xmlns="http://www.w3.org/2000/svg">
<g clip-path="url(#clip0_202_6963)">
<g filter="url(#filter0_ddd_202_6963)">
<path d="M93.2021 17.251V19H86.4082V17.251H93.2021ZM87.0322 6.20312V19H84.8262V6.20312H87.0322ZM92.3145 11.5469V13.2695H86.4082V11.5469H92.3145ZM93.1582 6.20312V7.96094H86.4082V6.20312H93.1582ZM96.4102 9.49023L98.2207 12.6455L100.066 9.49023H102.396L99.5127 14.1572L102.51 19H100.181L98.2471 15.7129L96.3135 19H93.9756L96.9639 14.1572L94.0898 9.49023H96.4102ZM107.555 17.4883C107.9 17.4883 108.211 17.4209 108.486 17.2861C108.768 17.1455 108.993 16.9521 109.163 16.7061C109.339 16.46 109.436 16.1758 109.453 15.8535H111.448C111.437 16.4688 111.255 17.0283 110.903 17.5322C110.552 18.0361 110.086 18.4375 109.506 18.7363C108.926 19.0293 108.284 19.1758 107.581 19.1758C106.854 19.1758 106.222 19.0527 105.683 18.8066C105.144 18.5547 104.695 18.209 104.338 17.7695C103.98 17.3301 103.711 16.8232 103.529 16.249C103.354 15.6748 103.266 15.0596 103.266 14.4033V14.0957C103.266 13.4395 103.354 12.8242 103.529 12.25C103.711 11.6699 103.98 11.1602 104.338 10.7207C104.695 10.2812 105.144 9.93848 105.683 9.69238C106.222 9.44043 106.852 9.31445 107.572 9.31445C108.334 9.31445 109.002 9.4668 109.576 9.77148C110.15 10.0703 110.602 10.4893 110.93 11.0283C111.264 11.5615 111.437 12.1826 111.448 12.8916H109.453C109.436 12.54 109.348 12.2236 109.189 11.9424C109.037 11.6553 108.82 11.4268 108.539 11.2568C108.264 11.0869 107.933 11.002 107.546 11.002C107.118 11.002 106.764 11.0898 106.482 11.2656C106.201 11.4355 105.981 11.6699 105.823 11.9688C105.665 12.2617 105.551 12.5928 105.48 12.9619C105.416 13.3252 105.384 13.7031 105.384 14.0957V14.4033C105.384 14.7959 105.416 15.1768 105.48 15.5459C105.545 15.915 105.656 16.2461 105.814 16.5391C105.979 16.8262 106.201 17.0576 106.482 17.2334C106.764 17.4033 107.121 17.4883 107.555 17.4883ZM117.267 19.1758C116.563 19.1758 115.928 19.0615 115.359 18.833C114.797 18.5986 114.316 18.2734 113.918 17.8574C113.525 17.4414 113.224 16.9521 113.013 16.3896C112.802 15.8271 112.696 15.2207 112.696 14.5703V14.2188C112.696 13.4746 112.805 12.8008 113.021 12.1973C113.238 11.5938 113.54 11.0781 113.927 10.6504C114.313 10.2168 114.771 9.88574 115.298 9.65723C115.825 9.42871 116.396 9.31445 117.012 9.31445C117.691 9.31445 118.286 9.42871 118.796 9.65723C119.306 9.88574 119.728 10.208 120.062 10.624C120.401 11.0342 120.653 11.5234 120.817 12.0918C120.987 12.6602 121.072 13.2871 121.072 13.9727V14.8779H113.725V13.3574H118.98V13.1904C118.969 12.8096 118.893 12.4521 118.752 12.1182C118.617 11.7842 118.409 11.5146 118.128 11.3096C117.847 11.1045 117.472 11.002 117.003 11.002C116.651 11.002 116.338 11.0781 116.062 11.2305C115.793 11.377 115.567 11.5908 115.386 11.8721C115.204 12.1533 115.063 12.4932 114.964 12.8916C114.87 13.2842 114.823 13.7266 114.823 14.2188V14.5703C114.823 14.9863 114.879 15.373 114.99 15.7305C115.107 16.082 115.277 16.3896 115.5 16.6533C115.723 16.917 115.992 17.125 116.309 17.2773C116.625 17.4238 116.985 17.4971 117.39 17.4971C117.899 17.4971 118.354 17.3945 118.752 17.1895C119.15 16.9844 119.496 16.6943 119.789 16.3193L120.905 17.4004C120.7 17.6992 120.434 17.9863 120.105 18.2617C119.777 18.5312 119.376 18.751 118.901 18.9209C118.433 19.0908 117.888 19.1758 117.267 19.1758ZM124.992 5.5V19H122.865V5.5H124.992ZM129.58 5.5V19H127.453V5.5H129.58ZM136.093 19.1758C135.39 19.1758 134.754 19.0615 134.186 18.833C133.623 18.5986 133.143 18.2734 132.744 17.8574C132.352 17.4414 132.05 16.9521 131.839 16.3896C131.628 15.8271 131.522 15.2207 131.522 14.5703V14.2188C131.522 13.4746 131.631 12.8008 131.848 12.1973C132.064 11.5938 132.366 11.0781 132.753 10.6504C133.14 10.2168 133.597 9.88574 134.124 9.65723C134.651 9.42871 135.223 9.31445 135.838 9.31445C136.518 9.31445 137.112 9.42871 137.622 9.65723C138.132 9.88574 138.554 10.208 138.888 10.624C139.228 11.0342 139.479 11.5234 139.644 12.0918C139.813 12.6602 139.898 13.2871 139.898 13.9727V14.8779H132.551V13.3574H137.807V13.1904C137.795 12.8096 137.719 12.4521 137.578 12.1182C137.443 11.7842 137.235 11.5146 136.954 11.3096C136.673 11.1045 136.298 11.002 135.829 11.002C135.478 11.002 135.164 11.0781 134.889 11.2305C134.619 11.377 134.394 11.5908 134.212 11.8721C134.03 12.1533 133.89 12.4932 133.79 12.8916C133.696 13.2842 133.649 13.7266 133.649 14.2188V14.5703C133.649 14.9863 133.705 15.373 133.816 15.7305C133.934 16.082 134.104 16.3896 134.326 16.6533C134.549 16.917 134.818 17.125 135.135 17.2773C135.451 17.4238 135.812 17.4971 136.216 17.4971C136.726 17.4971 137.18 17.3945 137.578 17.1895C137.977 16.9844 138.322 16.6943 138.615 16.3193L139.731 17.4004C139.526 17.6992 139.26 17.9863 138.932 18.2617C138.604 18.5312 138.202 18.751 137.728 18.9209C137.259 19.0908 136.714 19.1758 136.093 19.1758ZM143.651 11.5205V19H141.533V9.49023H143.528L143.651 11.5205ZM143.273 13.8936L142.588 13.8848C142.594 13.2109 142.688 12.5928 142.869 12.0303C143.057 11.4678 143.314 10.9844 143.643 10.5801C143.977 10.1758 144.375 9.86523 144.838 9.64844C145.301 9.42578 145.816 9.31445 146.385 9.31445C146.842 9.31445 147.255 9.37891 147.624 9.50781C147.999 9.63086 148.318 9.83301 148.582 10.1143C148.852 10.3955 149.057 10.7617 149.197 11.2129C149.338 11.6582 149.408 12.2061 149.408 12.8564V19H147.281V12.8477C147.281 12.3906 147.214 12.0303 147.079 11.7666C146.95 11.4971 146.76 11.3066 146.508 11.1953C146.262 11.0781 145.954 11.0195 145.585 11.0195C145.222 11.0195 144.896 11.0957 144.609 11.248C144.322 11.4004 144.079 11.6084 143.88 11.8721C143.687 12.1357 143.537 12.4404 143.432 12.7861C143.326 13.1318 143.273 13.501 143.273 13.8936ZM155.93 9.49023V11.0371H150.568V9.49023H155.93ZM152.115 7.16113H154.233V16.3721C154.233 16.665 154.274 16.8906 154.356 17.0488C154.444 17.2012 154.564 17.3037 154.717 17.3564C154.869 17.4092 155.048 17.4355 155.253 17.4355C155.399 17.4355 155.54 17.4268 155.675 17.4092C155.81 17.3916 155.918 17.374 156 17.3564L156.009 18.9736C155.833 19.0264 155.628 19.0732 155.394 19.1143C155.165 19.1553 154.901 19.1758 154.603 19.1758C154.116 19.1758 153.686 19.0908 153.311 18.9209C152.936 18.7451 152.643 18.4609 152.432 18.0684C152.221 17.6758 152.115 17.1543 152.115 16.5039V7.16113Z" fill="black"/>
<path d="M40 34H0V74H40V34Z" fill="#219653"/>
<path d="M19.9995 60.9578L26.0828 59.4162L28.6245 67.2495L19.9995 60.9578ZM33.9995 50.8328H23.2911L19.9995 40.7495L16.7078 50.8328H5.99945L14.6661 57.0828L11.3745 67.1662L20.0411 60.9162L25.3745 57.0828L33.9995 50.8328Z" fill="white"/>
<path d="M90 34H50V74H90V34Z" fill="#219653"/>
<path d="M69.9994 60.9578L76.0828 59.4162L78.6244 67.2495L69.9994 60.9578ZM83.9994 50.8328H73.2911L69.9994 40.7495L66.7078 50.8328H55.9995L64.6661 57.0828L61.3744 67.1662L70.0411 60.9162L75.3744 57.0828L83.9994 50.8328Z" fill="white"/>
<path d="M140 34H100V74H140V34Z" fill="#219653"/>
<path d="M119.999 60.9578L126.083 59.4162L128.624 67.2495L119.999 60.9578ZM133.999 50.8328H123.291L119.999 40.7495L116.708 50.8328H105.999L114.666 57.0828L111.374 67.1662L120.041 60.9162L125.374 57.0828L133.999 50.8328Z" fill="white"/>
<path d="M190 34H150V74H190V34Z" fill="#219653"/>
<path d="M169.999 60.9578L176.083 59.4162L178.624 67.2495L169.999 60.9578ZM183.999 50.8328H173.291L169.999 40.7495L166.708 50.8328H155.999L164.666 57.0828L161.374 67.1662L170.041 60.9162L175.374 57.0828L183.999 50.8328Z" fill="white"/>
<path d="M240 34H200V74H240V34Z" fill="#219653"/>
<path d="M219.999 60.9578L226.083 59.4162L228.624 67.2495L219.999 60.9578ZM233.999 50.8328H223.291L219.999 40.7495L216.708 50.8328H205.999L214.666 57.0828L211.374 67.1662L220.041 60.9162L225.374 57.0828L233.999 50.8328Z" fill="white"/>
<path d="M56.4121 93.2148H53.6094L53.5957 92.5039H56.0088C56.501 92.5039 56.9202 92.4333 57.2666 92.292C57.613 92.1507 57.875 91.9411 58.0527 91.6631C58.235 91.3805 58.3262 91.0342 58.3262 90.624C58.3262 90.2048 58.2373 89.8584 58.0596 89.585C57.8818 89.307 57.6152 89.1019 57.2598 88.9697C56.9043 88.8376 56.4577 88.7715 55.9199 88.7715H53.8281V98H52.9873V88.0469H55.9199C56.4258 88.0469 56.8792 88.097 57.2803 88.1973C57.6813 88.2975 58.0231 88.4548 58.3057 88.6689C58.5882 88.8831 58.8024 89.1543 58.9482 89.4824C59.0986 89.806 59.1738 90.1934 59.1738 90.6445C59.1738 91.0547 59.0827 91.4261 58.9004 91.7588C58.7181 92.0869 58.4606 92.3558 58.1279 92.5654C57.7998 92.7705 57.4056 92.8981 56.9453 92.9482L56.4121 93.2148ZM56.3506 98H53.3428L53.7734 97.2822H56.3506C56.8428 97.2822 57.262 97.2002 57.6084 97.0361C57.9593 96.8675 58.2282 96.6283 58.415 96.3184C58.6019 96.0085 58.6953 95.6393 58.6953 95.2109C58.6953 94.8327 58.6133 94.4932 58.4492 94.1924C58.2852 93.8916 58.0345 93.6546 57.6973 93.4814C57.36 93.3037 56.9316 93.2148 56.4121 93.2148H54.6689L54.6826 92.5039H57.1504L57.3008 92.7568C57.7474 92.8024 58.137 92.9414 58.4697 93.1738C58.807 93.4017 59.0667 93.6911 59.249 94.042C59.4359 94.3929 59.5293 94.778 59.5293 95.1973C59.5293 95.7988 59.3949 96.3092 59.126 96.7285C58.8617 97.1432 58.4902 97.46 58.0117 97.6787C57.5378 97.8929 56.984 98 56.3506 98ZM65.8799 96.6738V92.8594C65.8799 92.5085 65.807 92.2054 65.6611 91.9502C65.5153 91.695 65.3011 91.499 65.0186 91.3623C64.736 91.2256 64.3874 91.1572 63.9727 91.1572C63.5898 91.1572 63.248 91.2256 62.9473 91.3623C62.651 91.4945 62.4163 91.6745 62.2432 91.9023C62.0745 92.1257 61.9902 92.374 61.9902 92.6475L61.1699 92.6406C61.1699 92.3626 61.2383 92.0938 61.375 91.834C61.5117 91.5742 61.7054 91.3418 61.9561 91.1367C62.2067 90.9316 62.5052 90.7699 62.8516 90.6514C63.2025 90.5283 63.5876 90.4668 64.0068 90.4668C64.5355 90.4668 65.0003 90.5557 65.4014 90.7334C65.807 90.9111 66.1237 91.1777 66.3516 91.5332C66.5794 91.8887 66.6934 92.3353 66.6934 92.873V96.4482C66.6934 96.7035 66.7116 96.9678 66.748 97.2412C66.7891 97.5146 66.846 97.7402 66.9189 97.918V98H66.0508C65.9961 97.8359 65.9528 97.6309 65.9209 97.3848C65.8936 97.1341 65.8799 96.8971 65.8799 96.6738ZM66.0713 93.6934L66.085 94.3223H64.4785C64.0592 94.3223 63.6833 94.361 63.3506 94.4385C63.0225 94.5114 62.7445 94.6208 62.5166 94.7666C62.2887 94.9079 62.1133 95.0788 61.9902 95.2793C61.8717 95.4798 61.8125 95.7077 61.8125 95.9629C61.8125 96.2272 61.8786 96.4688 62.0107 96.6875C62.1475 96.9062 62.3389 97.0817 62.585 97.2139C62.8356 97.3415 63.1318 97.4053 63.4736 97.4053C63.9294 97.4053 64.3304 97.321 64.6768 97.1523C65.0277 96.9837 65.3171 96.7627 65.5449 96.4893C65.7728 96.2158 65.9255 95.9173 66.0029 95.5938L66.3584 96.0654C66.2992 96.2933 66.1898 96.528 66.0303 96.7695C65.8753 97.0065 65.6725 97.2298 65.4219 97.4395C65.1712 97.6445 64.875 97.8132 64.5332 97.9453C64.196 98.0729 63.8132 98.1367 63.3848 98.1367C62.9017 98.1367 62.4801 98.0456 62.1201 97.8633C61.7646 97.681 61.4867 97.4326 61.2861 97.1182C61.0902 96.7992 60.9922 96.4391 60.9922 96.0381C60.9922 95.6735 61.0697 95.3477 61.2246 95.0605C61.3796 94.7689 61.6029 94.5228 61.8945 94.3223C62.1908 94.1172 62.5462 93.9622 62.9609 93.8574C63.3802 93.748 63.8496 93.6934 64.3691 93.6934H66.0713ZM73.3174 96.1133C73.3174 95.9128 73.2673 95.7145 73.167 95.5186C73.0667 95.3226 72.873 95.1426 72.5859 94.9785C72.3034 94.8145 71.8864 94.6755 71.335 94.5615C70.9248 94.4704 70.5579 94.3678 70.2344 94.2539C69.9154 94.14 69.6465 94.0033 69.4277 93.8438C69.209 93.6842 69.0426 93.4928 68.9287 93.2695C68.8148 93.0462 68.7578 92.7819 68.7578 92.4766C68.7578 92.2031 68.8171 91.9456 68.9355 91.7041C69.0586 91.458 69.2318 91.2438 69.4551 91.0615C69.6829 90.8747 69.9564 90.7288 70.2754 90.624C70.599 90.5192 70.9613 90.4668 71.3623 90.4668C71.932 90.4668 72.4196 90.5648 72.8252 90.7607C73.2354 90.9521 73.5475 91.2142 73.7617 91.5469C73.9805 91.8796 74.0898 92.2555 74.0898 92.6748H73.2764C73.2764 92.4196 73.2012 92.1781 73.0508 91.9502C72.9049 91.7223 72.6885 91.5355 72.4014 91.3896C72.1188 91.2438 71.7725 91.1709 71.3623 91.1709C70.9385 91.1709 70.5944 91.2347 70.3301 91.3623C70.0658 91.4899 69.8721 91.6517 69.749 91.8477C69.6305 92.0436 69.5713 92.2464 69.5713 92.4561C69.5713 92.6201 69.5964 92.7705 69.6465 92.9072C69.7012 93.0394 69.7969 93.1624 69.9336 93.2764C70.0749 93.3903 70.2754 93.4974 70.5352 93.5977C70.7949 93.6979 71.1322 93.7959 71.5469 93.8916C72.1439 94.0238 72.6315 94.1855 73.0098 94.377C73.3926 94.5638 73.6751 94.7962 73.8574 95.0742C74.0397 95.3477 74.1309 95.6803 74.1309 96.0723C74.1309 96.3776 74.0671 96.6579 73.9395 96.9131C73.8118 97.1637 73.6273 97.3802 73.3857 97.5625C73.1488 97.7448 72.8617 97.8861 72.5244 97.9863C72.1917 98.0866 71.818 98.1367 71.4033 98.1367C70.779 98.1367 70.2503 98.0342 69.8174 97.8291C69.389 97.6195 69.0632 97.346 68.8398 97.0088C68.6211 96.667 68.5117 96.3047 68.5117 95.9219H69.3252C69.3525 96.3047 69.4733 96.6077 69.6875 96.8311C69.9017 97.0498 70.1637 97.2048 70.4736 97.2959C70.7881 97.387 71.098 97.4326 71.4033 97.4326C71.8226 97.4326 72.1735 97.3711 72.4561 97.248C72.7386 97.125 72.9528 96.9632 73.0986 96.7627C73.2445 96.5622 73.3174 96.3457 73.3174 96.1133ZM78.8408 98.1367C78.3577 98.1367 77.9134 98.0479 77.5078 97.8701C77.1068 97.6924 76.7559 97.4417 76.4551 97.1182C76.1589 96.7946 75.9287 96.4118 75.7646 95.9697C75.6051 95.5231 75.5254 95.0355 75.5254 94.5068V94.2129C75.5254 93.6432 75.6097 93.1283 75.7783 92.668C75.9469 92.2077 76.1794 91.8135 76.4756 91.4854C76.7718 91.1572 77.109 90.9066 77.4873 90.7334C77.8701 90.5557 78.2712 90.4668 78.6904 90.4668C79.1598 90.4668 79.5768 90.5511 79.9414 90.7197C80.306 90.8838 80.6113 91.1185 80.8574 91.4238C81.1081 91.7246 81.2972 92.0824 81.4248 92.4971C81.5524 92.9072 81.6162 93.3607 81.6162 93.8574V94.3564H76.0176V93.6592H80.8027V93.5635C80.7936 93.1488 80.7093 92.7614 80.5498 92.4014C80.3949 92.0368 80.1624 91.7406 79.8525 91.5127C79.5426 91.2848 79.1553 91.1709 78.6904 91.1709C78.3441 91.1709 78.0251 91.2438 77.7334 91.3896C77.4463 91.5355 77.1979 91.7451 76.9883 92.0186C76.7832 92.2874 76.6237 92.6087 76.5098 92.9824C76.4004 93.3516 76.3457 93.7617 76.3457 94.2129V94.5068C76.3457 94.917 76.4049 95.2998 76.5234 95.6553C76.6465 96.0062 76.8197 96.3161 77.043 96.585C77.2708 96.8538 77.5397 97.0635 77.8496 97.2139C78.1595 97.3643 78.5013 97.4395 78.875 97.4395C79.3125 97.4395 79.6999 97.3597 80.0371 97.2002C80.3743 97.0361 80.6774 96.7786 80.9463 96.4277L81.459 96.8242C81.2995 97.0612 81.099 97.2799 80.8574 97.4805C80.6204 97.681 80.3356 97.8405 80.0029 97.959C79.6702 98.0775 79.2829 98.1367 78.8408 98.1367ZM88.0352 96.5645V87.5H88.8555V98H88.0898L88.0352 96.5645ZM82.9014 94.377V94.2334C82.9014 93.6592 82.9674 93.1419 83.0996 92.6816C83.2318 92.2168 83.4209 91.8203 83.667 91.4922C83.9176 91.1595 84.2184 90.9066 84.5693 90.7334C84.9202 90.5557 85.3167 90.4668 85.7588 90.4668C86.1917 90.4668 86.5745 90.5374 86.9072 90.6787C87.2399 90.82 87.5247 91.0228 87.7617 91.2871C88.0033 91.5514 88.1969 91.8659 88.3428 92.2305C88.4932 92.5951 88.6025 93.0007 88.6709 93.4473V95.2725C88.6162 95.6917 88.516 96.0768 88.3701 96.4277C88.2243 96.7741 88.0306 97.0771 87.7891 97.3369C87.5475 97.5921 87.2559 97.7904 86.9141 97.9316C86.5768 98.0684 86.1872 98.1367 85.7451 98.1367C85.3076 98.1367 84.9134 98.0456 84.5625 97.8633C84.2116 97.681 83.9131 97.4235 83.667 97.0908C83.4209 96.7536 83.2318 96.3548 83.0996 95.8945C82.9674 95.4342 82.9014 94.9284 82.9014 94.377ZM83.7217 94.2334V94.377C83.7217 94.8099 83.765 95.2109 83.8516 95.5801C83.9382 95.9492 84.0703 96.2705 84.248 96.5439C84.4258 96.8174 84.6514 97.0316 84.9248 97.1865C85.1982 97.3415 85.5218 97.4189 85.8955 97.4189C86.3649 97.4189 86.7591 97.3301 87.0781 97.1523C87.3971 96.9701 87.6523 96.7308 87.8438 96.4346C88.0352 96.1338 88.1742 95.8057 88.2607 95.4502V93.3242C88.2061 93.0827 88.1263 92.8366 88.0215 92.5859C87.9167 92.3353 87.7731 92.1051 87.5908 91.8955C87.4131 91.6813 87.1852 91.5104 86.9072 91.3828C86.6338 91.2507 86.3011 91.1846 85.9092 91.1846C85.5309 91.1846 85.2051 91.262 84.9316 91.417C84.6582 91.5719 84.4303 91.7884 84.248 92.0664C84.0703 92.3398 83.9382 92.6611 83.8516 93.0303C83.765 93.3994 83.7217 93.8005 83.7217 94.2334ZM93.9756 94.418V94.1924C93.9756 93.6546 94.0531 93.1579 94.208 92.7021C94.363 92.2464 94.584 91.8522 94.8711 91.5195C95.1628 91.1868 95.5114 90.9294 95.917 90.7471C96.3226 90.5602 96.7738 90.4668 97.2705 90.4668C97.7718 90.4668 98.2253 90.5602 98.6309 90.7471C99.0365 90.9294 99.3851 91.1868 99.6768 91.5195C99.9684 91.8522 100.192 92.2464 100.347 92.7021C100.502 93.1579 100.579 93.6546 100.579 94.1924V94.418C100.579 94.9557 100.502 95.4525 100.347 95.9082C100.192 96.3594 99.9684 96.7513 99.6768 97.084C99.3896 97.4167 99.0433 97.6764 98.6377 97.8633C98.2321 98.0456 97.7809 98.1367 97.2842 98.1367C96.7829 98.1367 96.3294 98.0456 95.9238 97.8633C95.5182 97.6764 95.1696 97.4167 94.8779 97.084C94.5863 96.7513 94.363 96.3594 94.208 95.9082C94.0531 95.4525 93.9756 94.9557 93.9756 94.418ZM94.7891 94.1924V94.418C94.7891 94.8236 94.8438 95.2087 94.9531 95.5732C95.0625 95.9333 95.222 96.2546 95.4316 96.5371C95.6413 96.8151 95.901 97.0339 96.2109 97.1934C96.5208 97.3529 96.8786 97.4326 97.2842 97.4326C97.6852 97.4326 98.0384 97.3529 98.3438 97.1934C98.6536 97.0339 98.9134 96.8151 99.123 96.5371C99.3327 96.2546 99.4899 95.9333 99.5947 95.5732C99.7041 95.2087 99.7588 94.8236 99.7588 94.418V94.1924C99.7588 93.7913 99.7041 93.4108 99.5947 93.0508C99.4899 92.6908 99.3304 92.3695 99.1162 92.0869C98.9066 91.8044 98.6468 91.5811 98.3369 91.417C98.027 91.2529 97.6715 91.1709 97.2705 91.1709C96.8695 91.1709 96.514 91.2529 96.2041 91.417C95.8988 91.5811 95.639 91.8044 95.4248 92.0869C95.2152 92.3695 95.0557 92.6908 94.9463 93.0508C94.8415 93.4108 94.7891 93.7913 94.7891 94.1924ZM103.088 92.1826V98H102.274V90.6035H103.054L103.088 92.1826ZM102.903 93.8438L102.541 93.6387C102.568 93.2012 102.657 92.791 102.808 92.4082C102.958 92.0254 103.161 91.6882 103.416 91.3965C103.676 91.1048 103.979 90.877 104.325 90.7129C104.676 90.5488 105.063 90.4668 105.487 90.4668C105.856 90.4668 106.187 90.5169 106.479 90.6172C106.77 90.7174 107.019 90.877 107.224 91.0957C107.429 91.3145 107.584 91.5947 107.688 91.9365C107.798 92.2783 107.853 92.6953 107.853 93.1875V98H107.032V93.1807C107.032 92.6702 106.962 92.2715 106.82 91.9844C106.679 91.6927 106.479 91.4854 106.219 91.3623C105.959 91.2393 105.651 91.1777 105.296 91.1777C104.904 91.1777 104.56 91.2643 104.264 91.4375C103.972 91.6061 103.726 91.8271 103.525 92.1006C103.329 92.3695 103.179 92.6589 103.074 92.9688C102.969 93.2741 102.912 93.5658 102.903 93.8438ZM120.041 94.2812V95.8262H112.87L112.774 94.6299L116.924 88.0469H118.489L116.794 90.8838L114.729 94.2812H120.041ZM118.913 88.0469V98H116.944V88.0469H118.913ZM122.96 93.4678L121.388 93.0918L121.955 88.0469H127.547V89.6396H123.575L123.329 91.8477C123.461 91.7702 123.662 91.6882 123.931 91.6016C124.2 91.5104 124.5 91.4648 124.833 91.4648C125.316 91.4648 125.744 91.54 126.118 91.6904C126.492 91.8408 126.809 92.0596 127.068 92.3467C127.333 92.6338 127.533 92.9847 127.67 93.3994C127.807 93.8141 127.875 94.2835 127.875 94.8076C127.875 95.2497 127.807 95.6712 127.67 96.0723C127.533 96.4688 127.326 96.8242 127.048 97.1387C126.77 97.4486 126.421 97.6924 126.002 97.8701C125.583 98.0479 125.086 98.1367 124.512 98.1367C124.083 98.1367 123.669 98.0729 123.268 97.9453C122.871 97.8177 122.513 97.6286 122.194 97.3779C121.88 97.1273 121.627 96.8242 121.436 96.4688C121.249 96.1087 121.151 95.6986 121.142 95.2383H123.097C123.124 95.5208 123.197 95.7646 123.315 95.9697C123.438 96.1702 123.6 96.3252 123.801 96.4346C124.001 96.5439 124.236 96.5986 124.505 96.5986C124.756 96.5986 124.97 96.5508 125.147 96.4551C125.325 96.3594 125.469 96.2272 125.578 96.0586C125.688 95.8854 125.767 95.6849 125.817 95.457C125.872 95.2246 125.899 94.974 125.899 94.7051C125.899 94.4362 125.868 94.1924 125.804 93.9736C125.74 93.7549 125.642 93.5658 125.51 93.4062C125.378 93.2467 125.209 93.1237 125.004 93.0371C124.803 92.9505 124.569 92.9072 124.3 92.9072C123.935 92.9072 123.653 92.9642 123.452 93.0781C123.256 93.1921 123.092 93.3219 122.96 93.4678ZM134.226 87.9443H134.513V89.5166H134.396C133.877 89.5166 133.414 89.5941 133.009 89.749C132.603 89.904 132.259 90.125 131.977 90.4121C131.699 90.6947 131.484 91.0365 131.334 91.4375C131.188 91.8385 131.115 92.2874 131.115 92.7842V94.4385C131.115 94.7939 131.149 95.1084 131.218 95.3818C131.291 95.6507 131.393 95.8763 131.525 96.0586C131.662 96.2363 131.822 96.3708 132.004 96.4619C132.186 96.5485 132.391 96.5918 132.619 96.5918C132.833 96.5918 133.027 96.5462 133.2 96.4551C133.378 96.3639 133.528 96.2363 133.651 96.0723C133.779 95.9036 133.875 95.7077 133.938 95.4844C134.007 95.2565 134.041 95.0081 134.041 94.7393C134.041 94.4704 134.007 94.222 133.938 93.9941C133.875 93.7663 133.779 93.5703 133.651 93.4062C133.524 93.2376 133.369 93.1077 133.187 93.0166C133.004 92.9255 132.799 92.8799 132.571 92.8799C132.261 92.8799 131.988 92.9528 131.751 93.0986C131.519 93.2399 131.336 93.4222 131.204 93.6455C131.072 93.8688 131.001 94.1035 130.992 94.3496L130.397 93.9668C130.411 93.6159 130.484 93.2832 130.616 92.9688C130.753 92.6543 130.94 92.3763 131.177 92.1348C131.418 91.8887 131.708 91.6973 132.045 91.5605C132.382 91.4193 132.763 91.3486 133.187 91.3486C133.651 91.3486 134.059 91.4375 134.41 91.6152C134.766 91.793 135.062 92.0368 135.299 92.3467C135.536 92.6566 135.714 93.0143 135.832 93.4199C135.951 93.8255 136.01 94.2585 136.01 94.7188C136.01 95.2018 135.93 95.6507 135.771 96.0654C135.616 96.4801 135.39 96.8424 135.094 97.1523C134.802 97.4622 134.451 97.7038 134.041 97.877C133.631 98.0501 133.171 98.1367 132.66 98.1367C132.132 98.1367 131.651 98.041 131.218 97.8496C130.789 97.6536 130.42 97.3802 130.11 97.0293C129.8 96.6784 129.561 96.2614 129.393 95.7783C129.229 95.2952 129.146 94.7666 129.146 94.1924V93.4268C129.146 92.6247 129.263 91.891 129.495 91.2256C129.732 90.5557 130.072 89.9769 130.514 89.4893C130.956 88.9971 131.489 88.6165 132.113 88.3477C132.738 88.0788 133.442 87.9443 134.226 87.9443ZM142.723 92.2168V98H140.754V90.6035H142.606L142.723 92.2168ZM144.951 90.5557L144.917 92.3809C144.821 92.3672 144.705 92.3558 144.568 92.3467C144.436 92.333 144.315 92.3262 144.206 92.3262C143.928 92.3262 143.687 92.3626 143.481 92.4355C143.281 92.5039 143.112 92.6064 142.976 92.7432C142.843 92.8799 142.743 93.0462 142.675 93.2422C142.611 93.4382 142.575 93.6615 142.565 93.9121L142.169 93.7891C142.169 93.3105 142.217 92.8708 142.312 92.4697C142.408 92.0641 142.547 91.7109 142.729 91.4102C142.916 91.1094 143.144 90.877 143.413 90.7129C143.682 90.5488 143.99 90.4668 144.336 90.4668C144.445 90.4668 144.557 90.4759 144.671 90.4941C144.785 90.5078 144.878 90.5283 144.951 90.5557ZM149.148 98.1367C148.574 98.1367 148.059 98.0456 147.604 97.8633C147.148 97.6764 146.76 97.4189 146.441 97.0908C146.127 96.7627 145.885 96.3822 145.717 95.9492C145.548 95.5117 145.464 95.0469 145.464 94.5547V94.2812C145.464 93.7207 145.544 93.208 145.703 92.7432C145.863 92.2783 146.09 91.875 146.387 91.5332C146.688 91.1914 147.052 90.9294 147.48 90.7471C147.909 90.5602 148.392 90.4668 148.93 90.4668C149.454 90.4668 149.919 90.5534 150.324 90.7266C150.73 90.8997 151.069 91.1458 151.343 91.4648C151.621 91.7839 151.83 92.1667 151.972 92.6133C152.113 93.0553 152.184 93.5475 152.184 94.0898V94.9102H146.305V93.5977H150.249V93.4473C150.249 93.1738 150.199 92.93 150.099 92.7158C150.003 92.4971 149.857 92.3239 149.661 92.1963C149.465 92.0687 149.215 92.0049 148.909 92.0049C148.649 92.0049 148.426 92.0618 148.239 92.1758C148.052 92.2897 147.9 92.4492 147.781 92.6543C147.667 92.8594 147.581 93.1009 147.521 93.3789C147.467 93.6523 147.439 93.9531 147.439 94.2812V94.5547C147.439 94.8509 147.48 95.1243 147.562 95.375C147.649 95.6257 147.77 95.8421 147.925 96.0244C148.084 96.2067 148.276 96.348 148.499 96.4482C148.727 96.5485 148.984 96.5986 149.271 96.5986C149.627 96.5986 149.957 96.5303 150.263 96.3936C150.573 96.2523 150.839 96.0404 151.062 95.7578L152.02 96.7969C151.865 97.0202 151.653 97.2344 151.384 97.4395C151.119 97.6445 150.8 97.8132 150.427 97.9453C150.053 98.0729 149.627 98.1367 149.148 98.1367ZM155.725 96.5645L157.365 90.6035H159.423L156.928 98H155.684L155.725 96.5645ZM154.597 90.6035L156.244 96.5713L156.278 98H155.027L152.532 90.6035H154.597ZM162.383 90.6035V98H160.407V90.6035H162.383ZM160.284 88.6758C160.284 88.3887 160.384 88.1517 160.585 87.9648C160.785 87.778 161.054 87.6846 161.392 87.6846C161.724 87.6846 161.991 87.778 162.191 87.9648C162.396 88.1517 162.499 88.3887 162.499 88.6758C162.499 88.9629 162.396 89.1999 162.191 89.3867C161.991 89.5736 161.724 89.667 161.392 89.667C161.054 89.667 160.785 89.5736 160.585 89.3867C160.384 89.1999 160.284 88.9629 160.284 88.6758ZM167.414 98.1367C166.84 98.1367 166.325 98.0456 165.869 97.8633C165.413 97.6764 165.026 97.4189 164.707 97.0908C164.393 96.7627 164.151 96.3822 163.982 95.9492C163.814 95.5117 163.729 95.0469 163.729 94.5547V94.2812C163.729 93.7207 163.809 93.208 163.969 92.7432C164.128 92.2783 164.356 91.875 164.652 91.5332C164.953 91.1914 165.318 90.9294 165.746 90.7471C166.174 90.5602 166.658 90.4668 167.195 90.4668C167.719 90.4668 168.184 90.5534 168.59 90.7266C168.995 90.8997 169.335 91.1458 169.608 91.4648C169.886 91.7839 170.096 92.1667 170.237 92.6133C170.379 93.0553 170.449 93.5475 170.449 94.0898V94.9102H164.57V93.5977H168.515V93.4473C168.515 93.1738 168.465 92.93 168.364 92.7158C168.269 92.4971 168.123 92.3239 167.927 92.1963C167.731 92.0687 167.48 92.0049 167.175 92.0049C166.915 92.0049 166.692 92.0618 166.505 92.1758C166.318 92.2897 166.165 92.4492 166.047 92.6543C165.933 92.8594 165.846 93.1009 165.787 93.3789C165.732 93.6523 165.705 93.9531 165.705 94.2812V94.5547C165.705 94.8509 165.746 95.1243 165.828 95.375C165.915 95.6257 166.035 95.8421 166.19 96.0244C166.35 96.2067 166.541 96.348 166.765 96.4482C166.993 96.5485 167.25 96.5986 167.537 96.5986C167.893 96.5986 168.223 96.5303 168.528 96.3936C168.838 96.2523 169.105 96.0404 169.328 95.7578L170.285 96.7969C170.13 97.0202 169.918 97.2344 169.649 97.4395C169.385 97.6445 169.066 97.8132 168.692 97.9453C168.319 98.0729 167.893 98.1367 167.414 98.1367ZM173.683 96.0859L175.221 90.6035H176.472L176.068 92.7568L174.53 98H173.484L173.683 96.0859ZM172.903 90.6035L174.004 96.0791L174.106 98H172.876L171.003 90.6035H172.903ZM177.88 95.9902L178.953 90.6035H180.86L178.987 98H177.764L177.88 95.9902ZM176.643 90.6035L178.174 96.0449L178.386 98H177.333L175.795 92.7637L175.405 90.6035H176.643ZM185.851 95.9561C185.851 95.8148 185.81 95.6872 185.728 95.5732C185.646 95.4593 185.493 95.3545 185.27 95.2588C185.051 95.1585 184.734 95.0674 184.319 94.9854C183.946 94.9033 183.597 94.8008 183.273 94.6777C182.954 94.5501 182.676 94.3975 182.439 94.2197C182.207 94.042 182.025 93.8324 181.893 93.5908C181.76 93.3447 181.694 93.0645 181.694 92.75C181.694 92.4401 181.76 92.1484 181.893 91.875C182.029 91.6016 182.223 91.36 182.474 91.1504C182.729 90.9362 183.039 90.7699 183.403 90.6514C183.772 90.5283 184.187 90.4668 184.647 90.4668C185.29 90.4668 185.841 90.5693 186.302 90.7744C186.767 90.9795 187.122 91.262 187.368 91.6221C187.619 91.9775 187.744 92.3831 187.744 92.8389H185.775C185.775 92.6475 185.734 92.4766 185.652 92.3262C185.575 92.1712 185.452 92.0505 185.283 91.9639C185.119 91.8727 184.905 91.8271 184.641 91.8271C184.422 91.8271 184.233 91.8659 184.073 91.9434C183.914 92.0163 183.791 92.1165 183.704 92.2441C183.622 92.3672 183.581 92.5039 183.581 92.6543C183.581 92.7682 183.604 92.8708 183.649 92.9619C183.7 93.0485 183.779 93.1283 183.889 93.2012C183.998 93.2741 184.139 93.3424 184.312 93.4062C184.49 93.4655 184.709 93.5202 184.969 93.5703C185.502 93.6797 185.978 93.8232 186.397 94.001C186.817 94.1742 187.149 94.4111 187.396 94.7119C187.642 95.0081 187.765 95.3978 187.765 95.8809C187.765 96.209 187.692 96.5098 187.546 96.7832C187.4 97.0566 187.19 97.2959 186.917 97.501C186.644 97.7015 186.315 97.8587 185.933 97.9727C185.554 98.082 185.128 98.1367 184.654 98.1367C183.966 98.1367 183.383 98.0137 182.904 97.7676C182.43 97.5215 182.07 97.2093 181.824 96.8311C181.583 96.4482 181.462 96.0563 181.462 95.6553H183.328C183.337 95.9242 183.406 96.1406 183.533 96.3047C183.665 96.4688 183.832 96.5872 184.032 96.6602C184.237 96.7331 184.458 96.7695 184.695 96.7695C184.951 96.7695 185.162 96.7354 185.331 96.667C185.5 96.5941 185.627 96.4984 185.714 96.3799C185.805 96.2568 185.851 96.1156 185.851 95.9561Z" fill="black"/>
<path d="M108.898 99.3672H188.277V100.051H108.898V99.3672Z" fill="black"/>
<path d="M83 131.302L88.5094 129.906L90.8113 137L83 131.302ZM95.6792 122.132H85.9811L83 113L80.0189 122.132H70.3207L78.1698 127.792L75.1887 136.925L83.0377 131.264L87.8679 127.792L95.6792 122.132Z" fill="#219653"/>
<path d="M105.781 118.625V130H103.445V118.625H105.781ZM109.281 118.625V120.461H99.9995V118.625H109.281ZM112.179 123.391V130H109.929V121.547H112.046L112.179 123.391ZM114.726 121.492L114.687 123.578C114.578 123.562 114.445 123.549 114.289 123.539C114.138 123.523 114 123.516 113.875 123.516C113.557 123.516 113.281 123.557 113.046 123.641C112.817 123.719 112.625 123.836 112.468 123.992C112.317 124.148 112.203 124.339 112.125 124.562C112.052 124.786 112.01 125.042 112 125.328L111.546 125.188C111.546 124.641 111.601 124.138 111.71 123.68C111.82 123.216 111.979 122.812 112.187 122.469C112.401 122.125 112.661 121.859 112.968 121.672C113.276 121.484 113.627 121.391 114.023 121.391C114.148 121.391 114.276 121.401 114.406 121.422C114.536 121.438 114.643 121.461 114.726 121.492ZM120.789 127.977V121.547H123.039V130H120.921L120.789 127.977ZM121.039 126.242L121.703 126.227C121.703 126.789 121.638 127.312 121.507 127.797C121.377 128.276 121.182 128.693 120.921 129.047C120.661 129.396 120.333 129.669 119.937 129.867C119.541 130.06 119.075 130.156 118.539 130.156C118.127 130.156 117.747 130.099 117.398 129.984C117.054 129.865 116.757 129.68 116.507 129.43C116.263 129.174 116.07 128.849 115.929 128.453C115.794 128.052 115.726 127.57 115.726 127.008V121.547H117.976V127.023C117.976 127.273 118.005 127.484 118.062 127.656C118.125 127.828 118.21 127.969 118.32 128.078C118.429 128.188 118.557 128.266 118.703 128.312C118.854 128.359 119.02 128.383 119.203 128.383C119.666 128.383 120.031 128.289 120.296 128.102C120.567 127.914 120.757 127.659 120.867 127.336C120.981 127.008 121.039 126.643 121.039 126.242ZM129.328 127.664C129.328 127.503 129.281 127.357 129.187 127.227C129.093 127.096 128.919 126.977 128.664 126.867C128.414 126.753 128.052 126.648 127.578 126.555C127.151 126.461 126.752 126.344 126.382 126.203C126.018 126.057 125.7 125.883 125.429 125.68C125.164 125.477 124.955 125.237 124.804 124.961C124.653 124.68 124.578 124.359 124.578 124C124.578 123.646 124.653 123.312 124.804 123C124.96 122.688 125.182 122.411 125.468 122.172C125.76 121.927 126.114 121.737 126.531 121.602C126.953 121.461 127.427 121.391 127.953 121.391C128.687 121.391 129.317 121.508 129.843 121.742C130.375 121.977 130.781 122.299 131.062 122.711C131.349 123.117 131.492 123.581 131.492 124.102H129.242C129.242 123.883 129.195 123.688 129.101 123.516C129.013 123.339 128.872 123.201 128.679 123.102C128.492 122.997 128.247 122.945 127.945 122.945C127.695 122.945 127.479 122.99 127.296 123.078C127.114 123.161 126.974 123.276 126.875 123.422C126.781 123.562 126.734 123.719 126.734 123.891C126.734 124.021 126.76 124.138 126.812 124.242C126.869 124.341 126.96 124.432 127.085 124.516C127.21 124.599 127.372 124.677 127.57 124.75C127.773 124.818 128.023 124.88 128.32 124.938C128.929 125.062 129.474 125.227 129.953 125.43C130.432 125.628 130.812 125.898 131.093 126.242C131.375 126.581 131.515 127.026 131.515 127.578C131.515 127.953 131.432 128.297 131.265 128.609C131.099 128.922 130.859 129.195 130.546 129.43C130.234 129.659 129.859 129.839 129.421 129.969C128.989 130.094 128.502 130.156 127.96 130.156C127.174 130.156 126.507 130.016 125.96 129.734C125.419 129.453 125.007 129.096 124.726 128.664C124.45 128.227 124.312 127.779 124.312 127.32H126.445C126.455 127.628 126.533 127.875 126.679 128.062C126.83 128.25 127.02 128.385 127.25 128.469C127.484 128.552 127.737 128.594 128.007 128.594C128.299 128.594 128.541 128.555 128.734 128.477C128.927 128.393 129.072 128.284 129.171 128.148C129.276 128.008 129.328 127.846 129.328 127.664ZM137.117 121.547V123.141H132.195V121.547H137.117ZM133.414 119.461H135.664V127.453C135.664 127.698 135.695 127.885 135.757 128.016C135.825 128.146 135.924 128.237 136.054 128.289C136.184 128.336 136.349 128.359 136.546 128.359C136.687 128.359 136.812 128.354 136.921 128.344C137.036 128.328 137.132 128.312 137.21 128.297L137.218 129.953C137.026 130.016 136.817 130.065 136.593 130.102C136.369 130.138 136.122 130.156 135.851 130.156C135.356 130.156 134.924 130.076 134.554 129.914C134.19 129.747 133.908 129.482 133.71 129.117C133.513 128.753 133.414 128.273 133.414 127.68V119.461ZM140.648 123.172V133.25H138.398V121.547H140.484L140.648 123.172ZM146 125.68V125.844C146 126.458 145.927 127.029 145.781 127.555C145.64 128.081 145.432 128.539 145.156 128.93C144.88 129.315 144.536 129.617 144.125 129.836C143.718 130.049 143.25 130.156 142.718 130.156C142.203 130.156 141.755 130.052 141.375 129.844C140.994 129.635 140.674 129.344 140.414 128.969C140.158 128.589 139.953 128.148 139.796 127.648C139.64 127.148 139.52 126.612 139.437 126.039V125.609C139.52 124.995 139.64 124.432 139.796 123.922C139.953 123.406 140.158 122.961 140.414 122.586C140.674 122.206 140.992 121.911 141.367 121.703C141.747 121.495 142.192 121.391 142.703 121.391C143.239 121.391 143.71 121.492 144.117 121.695C144.528 121.898 144.872 122.19 145.148 122.57C145.429 122.951 145.64 123.404 145.781 123.93C145.927 124.456 146 125.039 146 125.68ZM143.742 125.844V125.68C143.742 125.32 143.71 124.99 143.648 124.688C143.591 124.38 143.497 124.112 143.367 123.883C143.242 123.654 143.075 123.477 142.867 123.352C142.664 123.221 142.416 123.156 142.125 123.156C141.817 123.156 141.554 123.206 141.335 123.305C141.122 123.404 140.947 123.547 140.812 123.734C140.677 123.922 140.575 124.146 140.507 124.406C140.44 124.667 140.398 124.961 140.382 125.289V126.375C140.408 126.76 140.481 127.107 140.601 127.414C140.721 127.716 140.906 127.956 141.156 128.133C141.406 128.31 141.734 128.398 142.14 128.398C142.437 128.398 142.687 128.333 142.89 128.203C143.093 128.068 143.257 127.883 143.382 127.648C143.513 127.414 143.604 127.143 143.656 126.836C143.713 126.529 143.742 126.198 143.742 125.844ZM149.773 121.547V130H147.515V121.547H149.773ZM147.375 119.344C147.375 119.016 147.489 118.745 147.718 118.531C147.947 118.318 148.255 118.211 148.64 118.211C149.02 118.211 149.325 118.318 149.554 118.531C149.789 118.745 149.906 119.016 149.906 119.344C149.906 119.672 149.789 119.943 149.554 120.156C149.325 120.37 149.02 120.477 148.64 120.477C148.255 120.477 147.947 120.37 147.718 120.156C147.489 119.943 147.375 119.672 147.375 119.344ZM154.007 118V130H151.75V118H154.007ZM155.507 125.859V125.695C155.507 125.076 155.596 124.505 155.773 123.984C155.95 123.458 156.208 123.003 156.546 122.617C156.885 122.232 157.302 121.932 157.796 121.719C158.291 121.5 158.859 121.391 159.5 121.391C160.14 121.391 160.71 121.5 161.21 121.719C161.71 121.932 162.13 122.232 162.468 122.617C162.812 123.003 163.072 123.458 163.25 123.984C163.427 124.505 163.515 125.076 163.515 125.695V125.859C163.515 126.474 163.427 127.044 163.25 127.57C163.072 128.091 162.812 128.547 162.468 128.938C162.13 129.323 161.713 129.622 161.218 129.836C160.724 130.049 160.156 130.156 159.515 130.156C158.875 130.156 158.304 130.049 157.804 129.836C157.309 129.622 156.89 129.323 156.546 128.938C156.208 128.547 155.95 128.091 155.773 127.57C155.596 127.044 155.507 126.474 155.507 125.859ZM157.757 125.695V125.859C157.757 126.214 157.789 126.544 157.851 126.852C157.914 127.159 158.013 127.43 158.148 127.664C158.289 127.893 158.471 128.073 158.695 128.203C158.919 128.333 159.192 128.398 159.515 128.398C159.828 128.398 160.096 128.333 160.32 128.203C160.544 128.073 160.724 127.893 160.859 127.664C160.994 127.43 161.093 127.159 161.156 126.852C161.224 126.544 161.257 126.214 161.257 125.859V125.695C161.257 125.352 161.224 125.029 161.156 124.727C161.093 124.419 160.992 124.148 160.851 123.914C160.716 123.674 160.536 123.487 160.312 123.352C160.088 123.216 159.817 123.148 159.5 123.148C159.182 123.148 158.911 123.216 158.687 123.352C158.468 123.487 158.289 123.674 158.148 123.914C158.013 124.148 157.914 124.419 157.851 124.727C157.789 125.029 157.757 125.352 157.757 125.695ZM169.039 121.547V123.141H164.117V121.547H169.039ZM165.335 119.461H167.585V127.453C167.585 127.698 167.617 127.885 167.679 128.016C167.747 128.146 167.846 128.237 167.976 128.289C168.106 128.336 168.27 128.359 168.468 128.359C168.609 128.359 168.734 128.354 168.843 128.344C168.958 128.328 169.054 128.312 169.132 128.297L169.14 129.953C168.947 130.016 168.739 130.065 168.515 130.102C168.291 130.138 168.044 130.156 167.773 130.156C167.278 130.156 166.846 130.076 166.476 129.914C166.112 129.747 165.83 129.482 165.632 129.117C165.434 128.753 165.335 128.273 165.335 127.68V119.461Z" fill="black"/>
</g>
</g>
<defs>
<filter id="filter0_ddd_202_6963" x="-60" y="-36" width="360" height="258" filterUnits="userSpaceOnUse" color-interpolation-filters="sRGB">
<feFlood flood-opacity="0" result="BackgroundImageFix"/>
<feColorMatrix in="SourceAlpha" type="matrix" values="0 0 0 0 0 0 0 0 0 0 0 0 0 0 0 0 0 0 127 0" result="hardAlpha"/>
<feOffset dy="12"/>
<feGaussianBlur stdDeviation="12"/>
<feColorMatrix type="matrix" values="0 0 0 0 0.107812 0 0 0 0 0.23 0 0 0 0 0.467187 0 0 0 0.05 0"/>
<feBlend mode="normal" in2="BackgroundImageFix" result="effect1_dropShadow_202_6963"/>
<feColorMatrix in="SourceAlpha" type="matrix" values="0 0 0 0 0 0 0 0 0 0 0 0 0 0 0 0 0 0 127 0" result="hardAlpha"/>
<feOffset dy="24"/>
<feGaussianBlur stdDeviation="30"/>
<feColorMatrix type="matrix" values="0 0 0 0 0.0247569 0 0 0 0 0.183589 0 0 0 0 0.49191 0 0 0 0.05 0"/>
<feBlend mode="normal" in2="effect1_dropShadow_202_6963" result="effect2_dropShadow_202_6963"/>
<feColorMatrix in="SourceAlpha" type="matrix" values="0 0 0 0 0 0 0 0 0 0 0 0 0 0 0 0 0 0 127 0" result="hardAlpha"/>
<feOffset dy="2"/>
<feGaussianBlur stdDeviation="2"/>
<feColorMatrix type="matrix" values="0 0 0 0 0.0284 0 0 0 0 0.017257 0 0 0 0 0.57441 0 0 0 0.1 0"/>
<feBlend mode="normal" in2="effect2_dropShadow_202_6963" result="effect3_dropShadow_202_6963"/>
<feBlend mode="normal" in="SourceGraphic" in2="effect3_dropShadow_202_6963" result="shape"/>
</filter>
<clipPath id="clip0_202_6963">
<rect width="240" height="138" fill="white"/>
</clipPath>
</defs>
</svg>
