<svg width="360" height="263" viewBox="0 0 360 263" fill="none" xmlns="http://www.w3.org/2000/svg">
<g filter="url(#filter0_ddd_68_6740)">
<path d="M153.202 58.251V60H146.408V58.251H153.202ZM147.032 47.2031V60H144.826V47.2031H147.032ZM152.314 52.5469V54.2695H146.408V52.5469H152.314ZM153.158 47.2031V48.9609H146.408V47.2031H153.158ZM156.41 50.4902L158.221 53.6455L160.066 50.4902H162.396L159.513 55.1572L162.51 60H160.181L158.247 56.7129L156.313 60H153.976L156.964 55.1572L154.09 50.4902H156.41ZM167.555 58.4883C167.9 58.4883 168.211 58.4209 168.486 58.2861C168.768 58.1455 168.993 57.9521 169.163 57.7061C169.339 57.46 169.436 57.1758 169.453 56.8535H171.448C171.437 57.4688 171.255 58.0283 170.903 58.5322C170.552 59.0361 170.086 59.4375 169.506 59.7363C168.926 60.0293 168.284 60.1758 167.581 60.1758C166.854 60.1758 166.222 60.0527 165.683 59.8066C165.144 59.5547 164.695 59.209 164.338 58.7695C163.98 58.3301 163.711 57.8232 163.529 57.249C163.354 56.6748 163.266 56.0596 163.266 55.4033V55.0957C163.266 54.4395 163.354 53.8242 163.529 53.25C163.711 52.6699 163.98 52.1602 164.338 51.7207C164.695 51.2812 165.144 50.9385 165.683 50.6924C166.222 50.4404 166.852 50.3145 167.572 50.3145C168.334 50.3145 169.002 50.4668 169.576 50.7715C170.15 51.0703 170.602 51.4893 170.93 52.0283C171.264 52.5615 171.437 53.1826 171.448 53.8916H169.453C169.436 53.54 169.348 53.2236 169.189 52.9424C169.037 52.6553 168.82 52.4268 168.539 52.2568C168.264 52.0869 167.933 52.002 167.546 52.002C167.118 52.002 166.764 52.0898 166.482 52.2656C166.201 52.4355 165.981 52.6699 165.823 52.9688C165.665 53.2617 165.551 53.5928 165.48 53.9619C165.416 54.3252 165.384 54.7031 165.384 55.0957V55.4033C165.384 55.7959 165.416 56.1768 165.48 56.5459C165.545 56.915 165.656 57.2461 165.814 57.5391C165.979 57.8262 166.201 58.0576 166.482 58.2334C166.764 58.4033 167.121 58.4883 167.555 58.4883ZM177.267 60.1758C176.563 60.1758 175.928 60.0615 175.359 59.833C174.797 59.5986 174.316 59.2734 173.918 58.8574C173.525 58.4414 173.224 57.9521 173.013 57.3896C172.802 56.8271 172.696 56.2207 172.696 55.5703V55.2188C172.696 54.4746 172.805 53.8008 173.021 53.1973C173.238 52.5938 173.54 52.0781 173.927 51.6504C174.313 51.2168 174.771 50.8857 175.298 50.6572C175.825 50.4287 176.396 50.3145 177.012 50.3145C177.691 50.3145 178.286 50.4287 178.796 50.6572C179.306 50.8857 179.728 51.208 180.062 51.624C180.401 52.0342 180.653 52.5234 180.817 53.0918C180.987 53.6602 181.072 54.2871 181.072 54.9727V55.8779H173.725V54.3574H178.98V54.1904C178.969 53.8096 178.893 53.4521 178.752 53.1182C178.617 52.7842 178.409 52.5146 178.128 52.3096C177.847 52.1045 177.472 52.002 177.003 52.002C176.651 52.002 176.338 52.0781 176.062 52.2305C175.793 52.377 175.567 52.5908 175.386 52.8721C175.204 53.1533 175.063 53.4932 174.964 53.8916C174.87 54.2842 174.823 54.7266 174.823 55.2188V55.5703C174.823 55.9863 174.879 56.373 174.99 56.7305C175.107 57.082 175.277 57.3896 175.5 57.6533C175.723 57.917 175.992 58.125 176.309 58.2773C176.625 58.4238 176.985 58.4971 177.39 58.4971C177.899 58.4971 178.354 58.3945 178.752 58.1895C179.15 57.9844 179.496 57.6943 179.789 57.3193L180.905 58.4004C180.7 58.6992 180.434 58.9863 180.105 59.2617C179.777 59.5312 179.376 59.751 178.901 59.9209C178.433 60.0908 177.888 60.1758 177.267 60.1758ZM184.992 46.5V60H182.865V46.5H184.992ZM189.58 46.5V60H187.453V46.5H189.58ZM196.093 60.1758C195.39 60.1758 194.754 60.0615 194.186 59.833C193.623 59.5986 193.143 59.2734 192.744 58.8574C192.352 58.4414 192.05 57.9521 191.839 57.3896C191.628 56.8271 191.522 56.2207 191.522 55.5703V55.2188C191.522 54.4746 191.631 53.8008 191.848 53.1973C192.064 52.5938 192.366 52.0781 192.753 51.6504C193.14 51.2168 193.597 50.8857 194.124 50.6572C194.651 50.4287 195.223 50.3145 195.838 50.3145C196.518 50.3145 197.112 50.4287 197.622 50.6572C198.132 50.8857 198.554 51.208 198.888 51.624C199.228 52.0342 199.479 52.5234 199.644 53.0918C199.813 53.6602 199.898 54.2871 199.898 54.9727V55.8779H192.551V54.3574H197.807V54.1904C197.795 53.8096 197.719 53.4521 197.578 53.1182C197.443 52.7842 197.235 52.5146 196.954 52.3096C196.673 52.1045 196.298 52.002 195.829 52.002C195.478 52.002 195.164 52.0781 194.889 52.2305C194.619 52.377 194.394 52.5908 194.212 52.8721C194.03 53.1533 193.89 53.4932 193.79 53.8916C193.696 54.2842 193.649 54.7266 193.649 55.2188V55.5703C193.649 55.9863 193.705 56.373 193.816 56.7305C193.934 57.082 194.104 57.3896 194.326 57.6533C194.549 57.917 194.818 58.125 195.135 58.2773C195.451 58.4238 195.812 58.4971 196.216 58.4971C196.726 58.4971 197.18 58.3945 197.578 58.1895C197.977 57.9844 198.322 57.6943 198.615 57.3193L199.731 58.4004C199.526 58.6992 199.26 58.9863 198.932 59.2617C198.604 59.5312 198.202 59.751 197.728 59.9209C197.259 60.0908 196.714 60.1758 196.093 60.1758ZM203.651 52.5205V60H201.533V50.4902H203.528L203.651 52.5205ZM203.273 54.8936L202.588 54.8848C202.594 54.2109 202.688 53.5928 202.869 53.0303C203.057 52.4678 203.314 51.9844 203.643 51.5801C203.977 51.1758 204.375 50.8652 204.838 50.6484C205.301 50.4258 205.816 50.3145 206.385 50.3145C206.842 50.3145 207.255 50.3789 207.624 50.5078C207.999 50.6309 208.318 50.833 208.582 51.1143C208.852 51.3955 209.057 51.7617 209.197 52.2129C209.338 52.6582 209.408 53.2061 209.408 53.8564V60H207.281V53.8477C207.281 53.3906 207.214 53.0303 207.079 52.7666C206.95 52.4971 206.76 52.3066 206.508 52.1953C206.262 52.0781 205.954 52.0195 205.585 52.0195C205.222 52.0195 204.896 52.0957 204.609 52.248C204.322 52.4004 204.079 52.6084 203.88 52.8721C203.687 53.1357 203.537 53.4404 203.432 53.7861C203.326 54.1318 203.273 54.501 203.273 54.8936ZM215.93 50.4902V52.0371H210.568V50.4902H215.93ZM212.115 48.1611H214.233V57.3721C214.233 57.665 214.274 57.8906 214.356 58.0488C214.444 58.2012 214.564 58.3037 214.717 58.3564C214.869 58.4092 215.048 58.4355 215.253 58.4355C215.399 58.4355 215.54 58.4268 215.675 58.4092C215.81 58.3916 215.918 58.374 216 58.3564L216.009 59.9736C215.833 60.0264 215.628 60.0732 215.394 60.1143C215.165 60.1553 214.901 60.1758 214.603 60.1758C214.116 60.1758 213.686 60.0908 213.311 59.9209C212.936 59.7451 212.643 59.4609 212.432 59.0684C212.221 58.6758 212.115 58.1543 212.115 57.5039V48.1611Z" fill="black"/>
<path d="M100 75H60V115H100V75Z" fill="#219653"/>
<path d="M79.9995 101.958L86.0828 100.417L88.6245 108.25L79.9995 101.958ZM93.9995 91.8333H83.2911L79.9995 81.75L76.7078 91.8333H65.9995L74.6661 98.0833L71.3745 108.167L80.0411 101.917L85.3745 98.0833L93.9995 91.8333Z" fill="white"/>
<path d="M150 75H110V115H150V75Z" fill="#219653"/>
<path d="M129.999 101.958L136.083 100.417L138.624 108.25L129.999 101.958ZM143.999 91.8333H133.291L129.999 81.75L126.708 91.8333H115.999L124.666 98.0833L121.374 108.167L130.041 101.917L135.374 98.0833L143.999 91.8333Z" fill="white"/>
<path d="M200 75H160V115H200V75Z" fill="#219653"/>
<path d="M179.999 101.958L186.083 100.417L188.624 108.25L179.999 101.958ZM193.999 91.8333H183.291L179.999 81.75L176.708 91.8333H165.999L174.666 98.0833L171.374 108.167L180.041 101.917L185.374 98.0833L193.999 91.8333Z" fill="white"/>
<path d="M250 75H210V115H250V75Z" fill="#219653"/>
<path d="M229.999 101.958L236.083 100.417L238.624 108.25L229.999 101.958ZM243.999 91.8333H233.291L229.999 81.75L226.708 91.8333H215.999L224.666 98.0833L221.374 108.167L230.041 101.917L235.374 98.0833L243.999 91.8333Z" fill="white"/>
<path d="M300 75H260V115H300V75Z" fill="#219653"/>
<path d="M279.999 101.958L286.083 100.417L288.624 108.25L279.999 101.958ZM293.999 91.8333H283.291L279.999 81.75L276.708 91.8333H265.999L274.666 98.0833L271.374 108.167L280.041 101.917L285.374 98.0833L293.999 91.8333Z" fill="white"/>
<path d="M116.412 134.215H113.609L113.596 133.504H116.009C116.501 133.504 116.92 133.433 117.267 133.292C117.613 133.151 117.875 132.941 118.053 132.663C118.235 132.381 118.326 132.034 118.326 131.624C118.326 131.205 118.237 130.858 118.06 130.585C117.882 130.307 117.615 130.102 117.26 129.97C116.904 129.838 116.458 129.771 115.92 129.771H113.828V139H112.987V129.047H115.92C116.426 129.047 116.879 129.097 117.28 129.197C117.681 129.298 118.023 129.455 118.306 129.669C118.588 129.883 118.802 130.154 118.948 130.482C119.099 130.806 119.174 131.193 119.174 131.645C119.174 132.055 119.083 132.426 118.9 132.759C118.718 133.087 118.461 133.356 118.128 133.565C117.8 133.771 117.406 133.898 116.945 133.948L116.412 134.215ZM116.351 139H113.343L113.773 138.282H116.351C116.843 138.282 117.262 138.2 117.608 138.036C117.959 137.868 118.228 137.628 118.415 137.318C118.602 137.008 118.695 136.639 118.695 136.211C118.695 135.833 118.613 135.493 118.449 135.192C118.285 134.892 118.035 134.655 117.697 134.481C117.36 134.304 116.932 134.215 116.412 134.215H114.669L114.683 133.504H117.15L117.301 133.757C117.747 133.802 118.137 133.941 118.47 134.174C118.807 134.402 119.067 134.691 119.249 135.042C119.436 135.393 119.529 135.778 119.529 136.197C119.529 136.799 119.395 137.309 119.126 137.729C118.862 138.143 118.49 138.46 118.012 138.679C117.538 138.893 116.984 139 116.351 139ZM125.88 137.674V133.859C125.88 133.508 125.807 133.205 125.661 132.95C125.515 132.695 125.301 132.499 125.019 132.362C124.736 132.226 124.387 132.157 123.973 132.157C123.59 132.157 123.248 132.226 122.947 132.362C122.651 132.494 122.416 132.674 122.243 132.902C122.075 133.126 121.99 133.374 121.99 133.647L121.17 133.641C121.17 133.363 121.238 133.094 121.375 132.834C121.512 132.574 121.705 132.342 121.956 132.137C122.207 131.932 122.505 131.77 122.852 131.651C123.202 131.528 123.588 131.467 124.007 131.467C124.535 131.467 125 131.556 125.401 131.733C125.807 131.911 126.124 132.178 126.352 132.533C126.579 132.889 126.693 133.335 126.693 133.873V137.448C126.693 137.703 126.712 137.968 126.748 138.241C126.789 138.515 126.846 138.74 126.919 138.918V139H126.051C125.996 138.836 125.953 138.631 125.921 138.385C125.894 138.134 125.88 137.897 125.88 137.674ZM126.071 134.693L126.085 135.322H124.479C124.059 135.322 123.683 135.361 123.351 135.438C123.022 135.511 122.744 135.621 122.517 135.767C122.289 135.908 122.113 136.079 121.99 136.279C121.872 136.48 121.812 136.708 121.812 136.963C121.812 137.227 121.879 137.469 122.011 137.688C122.147 137.906 122.339 138.082 122.585 138.214C122.836 138.341 123.132 138.405 123.474 138.405C123.929 138.405 124.33 138.321 124.677 138.152C125.028 137.984 125.317 137.763 125.545 137.489C125.773 137.216 125.925 136.917 126.003 136.594L126.358 137.065C126.299 137.293 126.19 137.528 126.03 137.77C125.875 138.007 125.673 138.23 125.422 138.439C125.171 138.645 124.875 138.813 124.533 138.945C124.196 139.073 123.813 139.137 123.385 139.137C122.902 139.137 122.48 139.046 122.12 138.863C121.765 138.681 121.487 138.433 121.286 138.118C121.09 137.799 120.992 137.439 120.992 137.038C120.992 136.674 121.07 136.348 121.225 136.061C121.38 135.769 121.603 135.523 121.895 135.322C122.191 135.117 122.546 134.962 122.961 134.857C123.38 134.748 123.85 134.693 124.369 134.693H126.071ZM133.317 137.113C133.317 136.913 133.267 136.715 133.167 136.519C133.067 136.323 132.873 136.143 132.586 135.979C132.303 135.814 131.886 135.675 131.335 135.562C130.925 135.47 130.558 135.368 130.234 135.254C129.915 135.14 129.646 135.003 129.428 134.844C129.209 134.684 129.043 134.493 128.929 134.27C128.815 134.046 128.758 133.782 128.758 133.477C128.758 133.203 128.817 132.946 128.936 132.704C129.059 132.458 129.232 132.244 129.455 132.062C129.683 131.875 129.956 131.729 130.275 131.624C130.599 131.519 130.961 131.467 131.362 131.467C131.932 131.467 132.42 131.565 132.825 131.761C133.235 131.952 133.548 132.214 133.762 132.547C133.98 132.88 134.09 133.256 134.09 133.675H133.276C133.276 133.42 133.201 133.178 133.051 132.95C132.905 132.722 132.688 132.535 132.401 132.39C132.119 132.244 131.772 132.171 131.362 132.171C130.938 132.171 130.594 132.235 130.33 132.362C130.066 132.49 129.872 132.652 129.749 132.848C129.631 133.044 129.571 133.246 129.571 133.456C129.571 133.62 129.596 133.771 129.646 133.907C129.701 134.039 129.797 134.162 129.934 134.276C130.075 134.39 130.275 134.497 130.535 134.598C130.795 134.698 131.132 134.796 131.547 134.892C132.144 135.024 132.632 135.186 133.01 135.377C133.393 135.564 133.675 135.796 133.857 136.074C134.04 136.348 134.131 136.68 134.131 137.072C134.131 137.378 134.067 137.658 133.939 137.913C133.812 138.164 133.627 138.38 133.386 138.562C133.149 138.745 132.862 138.886 132.524 138.986C132.192 139.087 131.818 139.137 131.403 139.137C130.779 139.137 130.25 139.034 129.817 138.829C129.389 138.619 129.063 138.346 128.84 138.009C128.621 137.667 128.512 137.305 128.512 136.922H129.325C129.353 137.305 129.473 137.608 129.688 137.831C129.902 138.05 130.164 138.205 130.474 138.296C130.788 138.387 131.098 138.433 131.403 138.433C131.823 138.433 132.174 138.371 132.456 138.248C132.739 138.125 132.953 137.963 133.099 137.763C133.244 137.562 133.317 137.346 133.317 137.113ZM138.841 139.137C138.358 139.137 137.913 139.048 137.508 138.87C137.107 138.692 136.756 138.442 136.455 138.118C136.159 137.795 135.929 137.412 135.765 136.97C135.605 136.523 135.525 136.035 135.525 135.507V135.213C135.525 134.643 135.61 134.128 135.778 133.668C135.947 133.208 136.179 132.813 136.476 132.485C136.772 132.157 137.109 131.907 137.487 131.733C137.87 131.556 138.271 131.467 138.69 131.467C139.16 131.467 139.577 131.551 139.941 131.72C140.306 131.884 140.611 132.118 140.857 132.424C141.108 132.725 141.297 133.082 141.425 133.497C141.552 133.907 141.616 134.361 141.616 134.857V135.356H136.018V134.659H140.803V134.563C140.794 134.149 140.709 133.761 140.55 133.401C140.395 133.037 140.162 132.741 139.853 132.513C139.543 132.285 139.155 132.171 138.69 132.171C138.344 132.171 138.025 132.244 137.733 132.39C137.446 132.535 137.198 132.745 136.988 133.019C136.783 133.287 136.624 133.609 136.51 133.982C136.4 134.352 136.346 134.762 136.346 135.213V135.507C136.346 135.917 136.405 136.3 136.523 136.655C136.646 137.006 136.82 137.316 137.043 137.585C137.271 137.854 137.54 138.063 137.85 138.214C138.16 138.364 138.501 138.439 138.875 138.439C139.312 138.439 139.7 138.36 140.037 138.2C140.374 138.036 140.677 137.779 140.946 137.428L141.459 137.824C141.299 138.061 141.099 138.28 140.857 138.48C140.62 138.681 140.336 138.84 140.003 138.959C139.67 139.077 139.283 139.137 138.841 139.137ZM148.035 137.564V128.5H148.855V139H148.09L148.035 137.564ZM142.901 135.377V135.233C142.901 134.659 142.967 134.142 143.1 133.682C143.232 133.217 143.421 132.82 143.667 132.492C143.918 132.16 144.218 131.907 144.569 131.733C144.92 131.556 145.317 131.467 145.759 131.467C146.192 131.467 146.575 131.537 146.907 131.679C147.24 131.82 147.525 132.023 147.762 132.287C148.003 132.551 148.197 132.866 148.343 133.23C148.493 133.595 148.603 134.001 148.671 134.447V136.272C148.616 136.692 148.516 137.077 148.37 137.428C148.224 137.774 148.031 138.077 147.789 138.337C147.548 138.592 147.256 138.79 146.914 138.932C146.577 139.068 146.187 139.137 145.745 139.137C145.308 139.137 144.913 139.046 144.562 138.863C144.212 138.681 143.913 138.424 143.667 138.091C143.421 137.754 143.232 137.355 143.1 136.895C142.967 136.434 142.901 135.928 142.901 135.377ZM143.722 135.233V135.377C143.722 135.81 143.765 136.211 143.852 136.58C143.938 136.949 144.07 137.271 144.248 137.544C144.426 137.817 144.651 138.032 144.925 138.187C145.198 138.341 145.522 138.419 145.896 138.419C146.365 138.419 146.759 138.33 147.078 138.152C147.397 137.97 147.652 137.731 147.844 137.435C148.035 137.134 148.174 136.806 148.261 136.45V134.324C148.206 134.083 148.126 133.837 148.021 133.586C147.917 133.335 147.773 133.105 147.591 132.896C147.413 132.681 147.185 132.51 146.907 132.383C146.634 132.251 146.301 132.185 145.909 132.185C145.531 132.185 145.205 132.262 144.932 132.417C144.658 132.572 144.43 132.788 144.248 133.066C144.07 133.34 143.938 133.661 143.852 134.03C143.765 134.399 143.722 134.8 143.722 135.233ZM153.976 135.418V135.192C153.976 134.655 154.053 134.158 154.208 133.702C154.363 133.246 154.584 132.852 154.871 132.52C155.163 132.187 155.511 131.929 155.917 131.747C156.323 131.56 156.774 131.467 157.271 131.467C157.772 131.467 158.225 131.56 158.631 131.747C159.036 131.929 159.385 132.187 159.677 132.52C159.968 132.852 160.192 133.246 160.347 133.702C160.502 134.158 160.579 134.655 160.579 135.192V135.418C160.579 135.956 160.502 136.452 160.347 136.908C160.192 137.359 159.968 137.751 159.677 138.084C159.39 138.417 159.043 138.676 158.638 138.863C158.232 139.046 157.781 139.137 157.284 139.137C156.783 139.137 156.329 139.046 155.924 138.863C155.518 138.676 155.17 138.417 154.878 138.084C154.586 137.751 154.363 137.359 154.208 136.908C154.053 136.452 153.976 135.956 153.976 135.418ZM154.789 135.192V135.418C154.789 135.824 154.844 136.209 154.953 136.573C155.062 136.933 155.222 137.255 155.432 137.537C155.641 137.815 155.901 138.034 156.211 138.193C156.521 138.353 156.879 138.433 157.284 138.433C157.685 138.433 158.038 138.353 158.344 138.193C158.654 138.034 158.913 137.815 159.123 137.537C159.333 137.255 159.49 136.933 159.595 136.573C159.704 136.209 159.759 135.824 159.759 135.418V135.192C159.759 134.791 159.704 134.411 159.595 134.051C159.49 133.691 159.33 133.369 159.116 133.087C158.907 132.804 158.647 132.581 158.337 132.417C158.027 132.253 157.672 132.171 157.271 132.171C156.869 132.171 156.514 132.253 156.204 132.417C155.899 132.581 155.639 132.804 155.425 133.087C155.215 133.369 155.056 133.691 154.946 134.051C154.841 134.411 154.789 134.791 154.789 135.192ZM163.088 133.183V139H162.274V131.604H163.054L163.088 133.183ZM162.903 134.844L162.541 134.639C162.568 134.201 162.657 133.791 162.808 133.408C162.958 133.025 163.161 132.688 163.416 132.396C163.676 132.105 163.979 131.877 164.325 131.713C164.676 131.549 165.063 131.467 165.487 131.467C165.856 131.467 166.187 131.517 166.479 131.617C166.77 131.717 167.019 131.877 167.224 132.096C167.429 132.314 167.584 132.595 167.688 132.937C167.798 133.278 167.853 133.695 167.853 134.188V139H167.032V134.181C167.032 133.67 166.962 133.271 166.82 132.984C166.679 132.693 166.479 132.485 166.219 132.362C165.959 132.239 165.651 132.178 165.296 132.178C164.904 132.178 164.56 132.264 164.264 132.438C163.972 132.606 163.726 132.827 163.525 133.101C163.329 133.369 163.179 133.659 163.074 133.969C162.969 134.274 162.912 134.566 162.903 134.844ZM180.041 135.281V136.826H172.87L172.774 135.63L176.924 129.047H178.489L176.794 131.884L174.729 135.281H180.041ZM178.913 129.047V139H176.944V129.047H178.913ZM182.96 134.468L181.388 134.092L181.955 129.047H187.547V130.64H183.575L183.329 132.848C183.461 132.77 183.662 132.688 183.931 132.602C184.2 132.51 184.5 132.465 184.833 132.465C185.316 132.465 185.744 132.54 186.118 132.69C186.492 132.841 186.809 133.06 187.068 133.347C187.333 133.634 187.533 133.985 187.67 134.399C187.807 134.814 187.875 135.284 187.875 135.808C187.875 136.25 187.807 136.671 187.67 137.072C187.533 137.469 187.326 137.824 187.048 138.139C186.77 138.449 186.421 138.692 186.002 138.87C185.583 139.048 185.086 139.137 184.512 139.137C184.083 139.137 183.669 139.073 183.268 138.945C182.871 138.818 182.513 138.629 182.194 138.378C181.88 138.127 181.627 137.824 181.436 137.469C181.249 137.109 181.151 136.699 181.142 136.238H183.097C183.124 136.521 183.197 136.765 183.315 136.97C183.438 137.17 183.6 137.325 183.801 137.435C184.001 137.544 184.236 137.599 184.505 137.599C184.756 137.599 184.97 137.551 185.147 137.455C185.325 137.359 185.469 137.227 185.578 137.059C185.688 136.885 185.767 136.685 185.817 136.457C185.872 136.225 185.899 135.974 185.899 135.705C185.899 135.436 185.868 135.192 185.804 134.974C185.74 134.755 185.642 134.566 185.51 134.406C185.378 134.247 185.209 134.124 185.004 134.037C184.803 133.951 184.569 133.907 184.3 133.907C183.935 133.907 183.653 133.964 183.452 134.078C183.256 134.192 183.092 134.322 182.96 134.468ZM194.226 128.944H194.513V130.517H194.396C193.877 130.517 193.414 130.594 193.009 130.749C192.603 130.904 192.259 131.125 191.977 131.412C191.699 131.695 191.484 132.036 191.334 132.438C191.188 132.839 191.115 133.287 191.115 133.784V135.438C191.115 135.794 191.149 136.108 191.218 136.382C191.291 136.651 191.393 136.876 191.525 137.059C191.662 137.236 191.822 137.371 192.004 137.462C192.186 137.549 192.391 137.592 192.619 137.592C192.833 137.592 193.027 137.546 193.2 137.455C193.378 137.364 193.528 137.236 193.651 137.072C193.779 136.904 193.875 136.708 193.938 136.484C194.007 136.257 194.041 136.008 194.041 135.739C194.041 135.47 194.007 135.222 193.938 134.994C193.875 134.766 193.779 134.57 193.651 134.406C193.524 134.238 193.369 134.108 193.187 134.017C193.004 133.925 192.799 133.88 192.571 133.88C192.261 133.88 191.988 133.953 191.751 134.099C191.519 134.24 191.336 134.422 191.204 134.646C191.072 134.869 191.001 135.104 190.992 135.35L190.397 134.967C190.411 134.616 190.484 134.283 190.616 133.969C190.753 133.654 190.94 133.376 191.177 133.135C191.418 132.889 191.708 132.697 192.045 132.561C192.382 132.419 192.763 132.349 193.187 132.349C193.651 132.349 194.059 132.438 194.41 132.615C194.766 132.793 195.062 133.037 195.299 133.347C195.536 133.657 195.714 134.014 195.832 134.42C195.951 134.826 196.01 135.258 196.01 135.719C196.01 136.202 195.93 136.651 195.771 137.065C195.616 137.48 195.39 137.842 195.094 138.152C194.802 138.462 194.451 138.704 194.041 138.877C193.631 139.05 193.171 139.137 192.66 139.137C192.132 139.137 191.651 139.041 191.218 138.85C190.789 138.654 190.42 138.38 190.11 138.029C189.8 137.678 189.561 137.261 189.393 136.778C189.229 136.295 189.146 135.767 189.146 135.192V134.427C189.146 133.625 189.263 132.891 189.495 132.226C189.732 131.556 190.072 130.977 190.514 130.489C190.956 129.997 191.489 129.617 192.113 129.348C192.738 129.079 193.442 128.944 194.226 128.944ZM202.723 133.217V139H200.754V131.604H202.606L202.723 133.217ZM204.951 131.556L204.917 133.381C204.821 133.367 204.705 133.356 204.568 133.347C204.436 133.333 204.315 133.326 204.206 133.326C203.928 133.326 203.687 133.363 203.481 133.436C203.281 133.504 203.112 133.606 202.976 133.743C202.843 133.88 202.743 134.046 202.675 134.242C202.611 134.438 202.575 134.661 202.565 134.912L202.169 134.789C202.169 134.311 202.217 133.871 202.312 133.47C202.408 133.064 202.547 132.711 202.729 132.41C202.916 132.109 203.144 131.877 203.413 131.713C203.682 131.549 203.99 131.467 204.336 131.467C204.445 131.467 204.557 131.476 204.671 131.494C204.785 131.508 204.878 131.528 204.951 131.556ZM209.148 139.137C208.574 139.137 208.059 139.046 207.604 138.863C207.148 138.676 206.76 138.419 206.441 138.091C206.127 137.763 205.885 137.382 205.717 136.949C205.548 136.512 205.464 136.047 205.464 135.555V135.281C205.464 134.721 205.544 134.208 205.703 133.743C205.863 133.278 206.09 132.875 206.387 132.533C206.688 132.191 207.052 131.929 207.48 131.747C207.909 131.56 208.392 131.467 208.93 131.467C209.454 131.467 209.919 131.553 210.324 131.727C210.73 131.9 211.069 132.146 211.343 132.465C211.621 132.784 211.83 133.167 211.972 133.613C212.113 134.055 212.184 134.548 212.184 135.09V135.91H206.305V134.598H210.249V134.447C210.249 134.174 210.199 133.93 210.099 133.716C210.003 133.497 209.857 133.324 209.661 133.196C209.465 133.069 209.215 133.005 208.909 133.005C208.649 133.005 208.426 133.062 208.239 133.176C208.052 133.29 207.9 133.449 207.781 133.654C207.667 133.859 207.581 134.101 207.521 134.379C207.467 134.652 207.439 134.953 207.439 135.281V135.555C207.439 135.851 207.48 136.124 207.562 136.375C207.649 136.626 207.77 136.842 207.925 137.024C208.084 137.207 208.276 137.348 208.499 137.448C208.727 137.549 208.984 137.599 209.271 137.599C209.627 137.599 209.957 137.53 210.263 137.394C210.573 137.252 210.839 137.04 211.062 136.758L212.02 137.797C211.865 138.02 211.653 138.234 211.384 138.439C211.119 138.645 210.8 138.813 210.427 138.945C210.053 139.073 209.627 139.137 209.148 139.137ZM215.725 137.564L217.365 131.604H219.423L216.928 139H215.684L215.725 137.564ZM214.597 131.604L216.244 137.571L216.278 139H215.027L212.532 131.604H214.597ZM222.383 131.604V139H220.407V131.604H222.383ZM220.284 129.676C220.284 129.389 220.384 129.152 220.585 128.965C220.785 128.778 221.054 128.685 221.392 128.685C221.724 128.685 221.991 128.778 222.191 128.965C222.396 129.152 222.499 129.389 222.499 129.676C222.499 129.963 222.396 130.2 222.191 130.387C221.991 130.574 221.724 130.667 221.392 130.667C221.054 130.667 220.785 130.574 220.585 130.387C220.384 130.2 220.284 129.963 220.284 129.676ZM227.414 139.137C226.84 139.137 226.325 139.046 225.869 138.863C225.413 138.676 225.026 138.419 224.707 138.091C224.393 137.763 224.151 137.382 223.982 136.949C223.814 136.512 223.729 136.047 223.729 135.555V135.281C223.729 134.721 223.809 134.208 223.969 133.743C224.128 133.278 224.356 132.875 224.652 132.533C224.953 132.191 225.318 131.929 225.746 131.747C226.174 131.56 226.658 131.467 227.195 131.467C227.719 131.467 228.184 131.553 228.59 131.727C228.995 131.9 229.335 132.146 229.608 132.465C229.886 132.784 230.096 133.167 230.237 133.613C230.379 134.055 230.449 134.548 230.449 135.09V135.91H224.57V134.598H228.515V134.447C228.515 134.174 228.465 133.93 228.364 133.716C228.269 133.497 228.123 133.324 227.927 133.196C227.731 133.069 227.48 133.005 227.175 133.005C226.915 133.005 226.692 133.062 226.505 133.176C226.318 133.29 226.165 133.449 226.047 133.654C225.933 133.859 225.846 134.101 225.787 134.379C225.732 134.652 225.705 134.953 225.705 135.281V135.555C225.705 135.851 225.746 136.124 225.828 136.375C225.915 136.626 226.035 136.842 226.19 137.024C226.35 137.207 226.541 137.348 226.765 137.448C226.993 137.549 227.25 137.599 227.537 137.599C227.893 137.599 228.223 137.53 228.528 137.394C228.838 137.252 229.105 137.04 229.328 136.758L230.285 137.797C230.13 138.02 229.918 138.234 229.649 138.439C229.385 138.645 229.066 138.813 228.692 138.945C228.319 139.073 227.893 139.137 227.414 139.137ZM233.683 137.086L235.221 131.604H236.472L236.068 133.757L234.53 139H233.484L233.683 137.086ZM232.903 131.604L234.004 137.079L234.106 139H232.876L231.003 131.604H232.903ZM237.88 136.99L238.953 131.604H240.86L238.987 139H237.764L237.88 136.99ZM236.643 131.604L238.174 137.045L238.386 139H237.333L235.795 133.764L235.405 131.604H236.643ZM245.851 136.956C245.851 136.815 245.81 136.687 245.728 136.573C245.646 136.459 245.493 136.354 245.27 136.259C245.051 136.159 244.734 136.067 244.319 135.985C243.946 135.903 243.597 135.801 243.273 135.678C242.954 135.55 242.676 135.397 242.439 135.22C242.207 135.042 242.025 134.832 241.893 134.591C241.76 134.345 241.694 134.064 241.694 133.75C241.694 133.44 241.76 133.148 241.893 132.875C242.029 132.602 242.223 132.36 242.474 132.15C242.729 131.936 243.039 131.77 243.403 131.651C243.772 131.528 244.187 131.467 244.647 131.467C245.29 131.467 245.841 131.569 246.302 131.774C246.767 131.979 247.122 132.262 247.368 132.622C247.619 132.978 247.744 133.383 247.744 133.839H245.775C245.775 133.647 245.734 133.477 245.652 133.326C245.575 133.171 245.452 133.05 245.283 132.964C245.119 132.873 244.905 132.827 244.641 132.827C244.422 132.827 244.233 132.866 244.073 132.943C243.914 133.016 243.791 133.117 243.704 133.244C243.622 133.367 243.581 133.504 243.581 133.654C243.581 133.768 243.604 133.871 243.649 133.962C243.7 134.049 243.779 134.128 243.889 134.201C243.998 134.274 244.139 134.342 244.312 134.406C244.49 134.465 244.709 134.52 244.969 134.57C245.502 134.68 245.978 134.823 246.397 135.001C246.817 135.174 247.149 135.411 247.396 135.712C247.642 136.008 247.765 136.398 247.765 136.881C247.765 137.209 247.692 137.51 247.546 137.783C247.4 138.057 247.19 138.296 246.917 138.501C246.644 138.701 246.315 138.859 245.933 138.973C245.554 139.082 245.128 139.137 244.654 139.137C243.966 139.137 243.383 139.014 242.904 138.768C242.43 138.521 242.07 138.209 241.824 137.831C241.583 137.448 241.462 137.056 241.462 136.655H243.328C243.337 136.924 243.406 137.141 243.533 137.305C243.665 137.469 243.832 137.587 244.032 137.66C244.237 137.733 244.458 137.77 244.695 137.77C244.951 137.77 245.162 137.735 245.331 137.667C245.5 137.594 245.627 137.498 245.714 137.38C245.805 137.257 245.851 137.116 245.851 136.956Z" fill="black"/>
<path d="M168.898 140.367H248.277V141.051H168.898V140.367Z" fill="black"/>
<path d="M143 172.302L148.509 170.906L150.811 178L143 172.302ZM155.679 163.132H145.981L143 154L140.019 163.132H130.321L138.17 168.792L135.189 177.925L143.038 172.264L147.868 168.792L155.679 163.132Z" fill="#219653"/>
<path d="M165.781 159.625V171H163.445V159.625H165.781ZM169.281 159.625V161.461H160V159.625H169.281ZM172.179 164.391V171H169.929V162.547H172.046L172.179 164.391ZM174.726 162.492L174.687 164.578C174.578 164.562 174.445 164.549 174.289 164.539C174.138 164.523 174 164.516 173.875 164.516C173.557 164.516 173.281 164.557 173.046 164.641C172.817 164.719 172.625 164.836 172.468 164.992C172.317 165.148 172.203 165.339 172.125 165.562C172.052 165.786 172.01 166.042 172 166.328L171.546 166.188C171.546 165.641 171.601 165.138 171.71 164.68C171.82 164.216 171.979 163.812 172.187 163.469C172.401 163.125 172.661 162.859 172.968 162.672C173.276 162.484 173.627 162.391 174.023 162.391C174.148 162.391 174.276 162.401 174.406 162.422C174.536 162.438 174.643 162.461 174.726 162.492ZM180.789 168.977V162.547H183.039V171H180.921L180.789 168.977ZM181.039 167.242L181.703 167.227C181.703 167.789 181.638 168.312 181.507 168.797C181.377 169.276 181.182 169.693 180.921 170.047C180.661 170.396 180.333 170.669 179.937 170.867C179.541 171.06 179.075 171.156 178.539 171.156C178.127 171.156 177.747 171.099 177.398 170.984C177.054 170.865 176.757 170.68 176.507 170.43C176.263 170.174 176.07 169.849 175.929 169.453C175.794 169.052 175.726 168.57 175.726 168.008V162.547H177.976V168.023C177.976 168.273 178.005 168.484 178.062 168.656C178.125 168.828 178.21 168.969 178.32 169.078C178.429 169.188 178.557 169.266 178.703 169.312C178.854 169.359 179.02 169.383 179.203 169.383C179.666 169.383 180.031 169.289 180.296 169.102C180.567 168.914 180.757 168.659 180.867 168.336C180.981 168.008 181.039 167.643 181.039 167.242ZM189.328 168.664C189.328 168.503 189.281 168.357 189.187 168.227C189.093 168.096 188.919 167.977 188.664 167.867C188.414 167.753 188.052 167.648 187.578 167.555C187.151 167.461 186.752 167.344 186.382 167.203C186.018 167.057 185.7 166.883 185.429 166.68C185.164 166.477 184.955 166.237 184.804 165.961C184.653 165.68 184.578 165.359 184.578 165C184.578 164.646 184.653 164.312 184.804 164C184.96 163.688 185.182 163.411 185.468 163.172C185.76 162.927 186.114 162.737 186.531 162.602C186.953 162.461 187.427 162.391 187.953 162.391C188.687 162.391 189.317 162.508 189.843 162.742C190.375 162.977 190.781 163.299 191.062 163.711C191.349 164.117 191.492 164.581 191.492 165.102H189.242C189.242 164.883 189.195 164.688 189.101 164.516C189.013 164.339 188.872 164.201 188.679 164.102C188.492 163.997 188.247 163.945 187.945 163.945C187.695 163.945 187.479 163.99 187.296 164.078C187.114 164.161 186.974 164.276 186.875 164.422C186.781 164.562 186.734 164.719 186.734 164.891C186.734 165.021 186.76 165.138 186.812 165.242C186.869 165.341 186.96 165.432 187.085 165.516C187.21 165.599 187.372 165.677 187.57 165.75C187.773 165.818 188.023 165.88 188.32 165.938C188.929 166.062 189.474 166.227 189.953 166.43C190.432 166.628 190.812 166.898 191.093 167.242C191.375 167.581 191.515 168.026 191.515 168.578C191.515 168.953 191.432 169.297 191.265 169.609C191.099 169.922 190.859 170.195 190.546 170.43C190.234 170.659 189.859 170.839 189.421 170.969C188.989 171.094 188.502 171.156 187.96 171.156C187.174 171.156 186.507 171.016 185.96 170.734C185.419 170.453 185.007 170.096 184.726 169.664C184.45 169.227 184.312 168.779 184.312 168.32H186.445C186.455 168.628 186.533 168.875 186.679 169.062C186.83 169.25 187.02 169.385 187.25 169.469C187.484 169.552 187.737 169.594 188.007 169.594C188.299 169.594 188.541 169.555 188.734 169.477C188.927 169.393 189.072 169.284 189.171 169.148C189.276 169.008 189.328 168.846 189.328 168.664ZM197.117 162.547V164.141H192.195V162.547H197.117ZM193.414 160.461H195.664V168.453C195.664 168.698 195.695 168.885 195.757 169.016C195.825 169.146 195.924 169.237 196.054 169.289C196.184 169.336 196.349 169.359 196.546 169.359C196.687 169.359 196.812 169.354 196.921 169.344C197.036 169.328 197.132 169.312 197.21 169.297L197.218 170.953C197.026 171.016 196.817 171.065 196.593 171.102C196.369 171.138 196.122 171.156 195.851 171.156C195.356 171.156 194.924 171.076 194.554 170.914C194.19 170.747 193.908 170.482 193.71 170.117C193.513 169.753 193.414 169.273 193.414 168.68V160.461ZM200.648 164.172V174.25H198.398V162.547H200.484L200.648 164.172ZM206 166.68V166.844C206 167.458 205.927 168.029 205.781 168.555C205.64 169.081 205.432 169.539 205.156 169.93C204.88 170.315 204.536 170.617 204.125 170.836C203.718 171.049 203.25 171.156 202.718 171.156C202.203 171.156 201.755 171.052 201.375 170.844C200.994 170.635 200.674 170.344 200.414 169.969C200.158 169.589 199.953 169.148 199.796 168.648C199.64 168.148 199.52 167.612 199.437 167.039V166.609C199.52 165.995 199.64 165.432 199.796 164.922C199.953 164.406 200.158 163.961 200.414 163.586C200.674 163.206 200.992 162.911 201.367 162.703C201.747 162.495 202.192 162.391 202.703 162.391C203.239 162.391 203.71 162.492 204.117 162.695C204.528 162.898 204.872 163.19 205.148 163.57C205.429 163.951 205.64 164.404 205.781 164.93C205.927 165.456 206 166.039 206 166.68ZM203.742 166.844V166.68C203.742 166.32 203.71 165.99 203.648 165.688C203.591 165.38 203.497 165.112 203.367 164.883C203.242 164.654 203.075 164.477 202.867 164.352C202.664 164.221 202.416 164.156 202.125 164.156C201.817 164.156 201.554 164.206 201.335 164.305C201.122 164.404 200.947 164.547 200.812 164.734C200.677 164.922 200.575 165.146 200.507 165.406C200.44 165.667 200.398 165.961 200.382 166.289V167.375C200.408 167.76 200.481 168.107 200.601 168.414C200.721 168.716 200.906 168.956 201.156 169.133C201.406 169.31 201.734 169.398 202.14 169.398C202.437 169.398 202.687 169.333 202.89 169.203C203.093 169.068 203.257 168.883 203.382 168.648C203.513 168.414 203.604 168.143 203.656 167.836C203.713 167.529 203.742 167.198 203.742 166.844ZM209.773 162.547V171H207.515V162.547H209.773ZM207.375 160.344C207.375 160.016 207.489 159.745 207.718 159.531C207.947 159.318 208.255 159.211 208.64 159.211C209.02 159.211 209.325 159.318 209.554 159.531C209.789 159.745 209.906 160.016 209.906 160.344C209.906 160.672 209.789 160.943 209.554 161.156C209.325 161.37 209.02 161.477 208.64 161.477C208.255 161.477 207.947 161.37 207.718 161.156C207.489 160.943 207.375 160.672 207.375 160.344ZM214.007 159V171H211.75V159H214.007ZM215.507 166.859V166.695C215.507 166.076 215.596 165.505 215.773 164.984C215.95 164.458 216.208 164.003 216.546 163.617C216.885 163.232 217.302 162.932 217.796 162.719C218.291 162.5 218.859 162.391 219.5 162.391C220.14 162.391 220.71 162.5 221.21 162.719C221.71 162.932 222.13 163.232 222.468 163.617C222.812 164.003 223.072 164.458 223.25 164.984C223.427 165.505 223.515 166.076 223.515 166.695V166.859C223.515 167.474 223.427 168.044 223.25 168.57C223.072 169.091 222.812 169.547 222.468 169.938C222.13 170.323 221.713 170.622 221.218 170.836C220.724 171.049 220.156 171.156 219.515 171.156C218.875 171.156 218.304 171.049 217.804 170.836C217.309 170.622 216.89 170.323 216.546 169.938C216.208 169.547 215.95 169.091 215.773 168.57C215.596 168.044 215.507 167.474 215.507 166.859ZM217.757 166.695V166.859C217.757 167.214 217.789 167.544 217.851 167.852C217.914 168.159 218.013 168.43 218.148 168.664C218.289 168.893 218.471 169.073 218.695 169.203C218.919 169.333 219.192 169.398 219.515 169.398C219.828 169.398 220.096 169.333 220.32 169.203C220.544 169.073 220.724 168.893 220.859 168.664C220.994 168.43 221.093 168.159 221.156 167.852C221.224 167.544 221.257 167.214 221.257 166.859V166.695C221.257 166.352 221.224 166.029 221.156 165.727C221.093 165.419 220.992 165.148 220.851 164.914C220.716 164.674 220.536 164.487 220.312 164.352C220.088 164.216 219.817 164.148 219.5 164.148C219.182 164.148 218.911 164.216 218.687 164.352C218.468 164.487 218.289 164.674 218.148 164.914C218.013 165.148 217.914 165.419 217.851 165.727C217.789 166.029 217.757 166.352 217.757 166.695ZM229.039 162.547V164.141H224.117V162.547H229.039ZM225.335 160.461H227.585V168.453C227.585 168.698 227.617 168.885 227.679 169.016C227.747 169.146 227.846 169.237 227.976 169.289C228.106 169.336 228.27 169.359 228.468 169.359C228.609 169.359 228.734 169.354 228.843 169.344C228.958 169.328 229.054 169.312 229.132 169.297L229.14 170.953C228.947 171.016 228.739 171.065 228.515 171.102C228.291 171.138 228.044 171.156 227.773 171.156C227.278 171.156 226.846 171.076 226.476 170.914C226.112 170.747 225.83 170.482 225.632 170.117C225.434 169.753 225.335 169.273 225.335 168.68V160.461Z" fill="black"/>
</g>
<defs>
<filter id="filter0_ddd_68_6740" x="-20" y="-36" width="400" height="340" filterUnits="userSpaceOnUse" color-interpolation-filters="sRGB">
<feFlood flood-opacity="0" result="BackgroundImageFix"/>
<feColorMatrix in="SourceAlpha" type="matrix" values="0 0 0 0 0 0 0 0 0 0 0 0 0 0 0 0 0 0 127 0" result="hardAlpha"/>
<feOffset dy="12"/>
<feGaussianBlur stdDeviation="12"/>
<feColorMatrix type="matrix" values="0 0 0 0 0.107812 0 0 0 0 0.23 0 0 0 0 0.467187 0 0 0 0.05 0"/>
<feBlend mode="normal" in2="BackgroundImageFix" result="effect1_dropShadow_68_6740"/>
<feColorMatrix in="SourceAlpha" type="matrix" values="0 0 0 0 0 0 0 0 0 0 0 0 0 0 0 0 0 0 127 0" result="hardAlpha"/>
<feOffset dy="24"/>
<feGaussianBlur stdDeviation="30"/>
<feColorMatrix type="matrix" values="0 0 0 0 0.0247569 0 0 0 0 0.183589 0 0 0 0 0.49191 0 0 0 0.05 0"/>
<feBlend mode="normal" in2="effect1_dropShadow_68_6740" result="effect2_dropShadow_68_6740"/>
<feColorMatrix in="SourceAlpha" type="matrix" values="0 0 0 0 0 0 0 0 0 0 0 0 0 0 0 0 0 0 127 0" result="hardAlpha"/>
<feOffset dy="2"/>
<feGaussianBlur stdDeviation="2"/>
<feColorMatrix type="matrix" values="0 0 0 0 0.0284 0 0 0 0 0.017257 0 0 0 0 0.57441 0 0 0 0.1 0"/>
<feBlend mode="normal" in2="effect2_dropShadow_68_6740" result="effect3_dropShadow_68_6740"/>
<feBlend mode="normal" in="SourceGraphic" in2="effect3_dropShadow_68_6740" result="shape"/>
</filter>
</defs>
</svg>
