<svg id="Layer_1" data-name="Layer 1" xmlns="http://www.w3.org/2000/svg" xmlns:xlink="http://www.w3.org/1999/xlink" width="393.92" height="190.03" viewBox="0 0 393.92 190.03"><defs><style>.cls-1,.cls-2,.cls-3,.cls-5,.cls-7,.cls-8{stroke:#231f20;stroke-miterlimit:10;}.cls-1{fill:url(#linear-gradient);}.cls-2{fill:none;}.cls-3{fill:url(#linear-gradient-2);}.cls-4{fill:#231f20;}.cls-5{fill:url(#linear-gradient-3);}.cls-6{fill:#010101;fill-rule:evenodd;}.cls-7{fill:url(#linear-gradient-4);}.cls-8{fill:url(#linear-gradient-5);}</style><linearGradient id="linear-gradient" x1="6.74" y1="95.01" x2="195.77" y2="95.01" gradientTransform="translate(96.84 -43.77) rotate(45)" gradientUnits="userSpaceOnUse"><stop offset="0" stop-color="#fbd1dc"/><stop offset="1" stop-color="#fcdca1"/></linearGradient><linearGradient id="linear-gradient-2" x1="196.34" y1="95.01" x2="385.37" y2="95.01" gradientTransform="translate(152.37 -177.84) rotate(45)" gradientUnits="userSpaceOnUse"><stop offset="0" stop-color="#fcdca1"/><stop offset="1" stop-color="#fbd2d9"/></linearGradient><linearGradient id="linear-gradient-3" x1="186.02" y1="95.01" x2="206.66" y2="95.01" gradientTransform="matrix(1, 0, 0, 1, 0, 0)" xlink:href="#linear-gradient-2"/><linearGradient id="linear-gradient-4" x1="0.5" y1="95.01" x2="21.14" y2="95.01" gradientTransform="matrix(1, 0, 0, 1, 0, 0)" xlink:href="#linear-gradient-2"/><linearGradient id="linear-gradient-5" x1="372.78" y1="95.01" x2="393.42" y2="95.01" gradientTransform="matrix(1, 0, 0, 1, 0, 0)" xlink:href="#linear-gradient-2"/></defs><rect class="cls-1" x="33.38" y="27.14" width="135.75" height="135.75" rx="3.56" transform="translate(-37.53 99.43) rotate(-45)"/><line class="cls-2" x1="101.25" y1="189.35" x2="101.25" y2="0.67"/><rect class="cls-3" x="222.98" y="27.14" width="135.75" height="135.75" rx="3.56" transform="translate(18.01 233.49) rotate(-45)"/><line class="cls-2" x1="291.27" y1="189.35" x2="291.27" y2="0.67"/><path class="cls-4" d="M30.93,99.29v-.12c.59,0,.79-.12.79-.42V91.44c0-.3-.2-.42-.79-.42V90.9H34c4.95,0,5.38,8.39,0,8.39ZM34,99.17c3.29,0,3.11-8.15,0-8.15H33.2v8.15Z"/><path class="cls-4" d="M40.56,98.75c0,.3.3.42.89.42v.12H38.21v-.12c.59,0,.89-.12.89-.42v-5h-.57v-.12l2-.6Zm-.71-7.85a.86.86,0,0,1,.79.91.81.81,0,1,1-.79-.91Z"/><path class="cls-4" d="M41.78,94.84c0-1.13,1.34-1.76,2.64-1.76a2.47,2.47,0,0,1,2.07.86l-.43,1.59h-.14a1.93,1.93,0,0,0-1.64-2.32c-.64,0-1.31.43-1.31,1,0,1.3,3.94,1.27,3.94,3.32,0,1.14-1.32,1.92-2.65,1.92a3.62,3.62,0,0,1-2.33-.81l.48-1.81h.15a2.12,2.12,0,0,0,1.81,2.5c.63,0,1.4-.39,1.4-1.07C45.77,96.69,41.78,96.81,41.78,94.84Z"/><path class="cls-4" d="M50,99.46a2.86,2.86,0,0,1-2.8-3.13,3.08,3.08,0,0,1,3.23-3.26,2.61,2.61,0,0,1,2.26,1l-.52,1.83H52c.09-1.59-.76-2.68-1.66-2.68s-1.69,1.46-1.69,3,.64,2.58,1.92,2.58a1.87,1.87,0,0,0,1.8-2h.12A2.5,2.5,0,0,1,50,99.46Z"/><path class="cls-4" d="M52.88,96.27a3,3,0,1,1,3,3.2A3.06,3.06,0,0,1,52.88,96.27Zm4.59,0c0-1.94-.56-3.07-1.56-3.07s-1.56,1.13-1.56,3.07.57,3.08,1.56,3.08S57.47,98.22,57.47,96.27Z"/><path class="cls-4" d="M59.8,94.67c-.43-.94-.95-1.26-1.4-1.26v-.12h3.43v.12c-.95,0-.89.17-.58.89l1.35,3c1-3.06,1.22-3.94.3-3.94v-.12h2.37v.12c-.92,0-1.44.93-2,2.46L62,99.29h-.13Z"/><path class="cls-4" d="M68.24,98.79a1.94,1.94,0,0,0,2-1.87h.12a2.51,2.51,0,0,1-2.65,2.55,2.92,2.92,0,0,1-2.93-3.19,3.08,3.08,0,0,1,2.94-3.2,2.7,2.7,0,0,1,2.69,2.85H66.27v.34C66.27,98.07,67.25,98.79,68.24,98.79Zm.69-3.11c0-1.67-.48-2.48-1.2-2.48s-1.35.91-1.45,2.59Z"/><path class="cls-4" d="M71.61,98.75v-5H71v-.12l2-.6v2a4,4,0,0,1,3-2L76.27,95a2.23,2.23,0,0,0-1.18-.28,2.77,2.77,0,0,0-2,.76v3.32c0,.3.3.42.89.42v.12H70.72v-.12C71.31,99.17,71.61,99.05,71.61,98.75Z"/><path class="cls-4" d="M128.27,99.29v-.12c.59,0,.79-.12.79-.42V91.44c0-.3-.2-.42-.79-.42V90.9h3.1c4.94,0,5.37,8.39,0,8.39Zm3.1-.12c3.28,0,3.1-8.15,0-8.15h-.83v8.15Z"/><path class="cls-4" d="M138.94,98.79a1.94,1.94,0,0,0,2-1.87h.12a2.5,2.5,0,0,1-2.65,2.55,2.92,2.92,0,0,1-2.92-3.19,3.07,3.07,0,0,1,2.94-3.2,2.7,2.7,0,0,1,2.68,2.85H137v.34C137,98.07,138,98.79,138.94,98.79Zm.69-3.11c0-1.67-.48-2.48-1.19-2.48s-1.36.91-1.46,2.59Z"/><path class="cls-4" d="M142.31,98.75V93.41h-.57v-.12c.37,0,.48-.07.48-.67a2.34,2.34,0,0,1,2.61-2.11,3.24,3.24,0,0,1,2,.68l-.43,1.28h-.12c0-.72-1.07-1-2-1-2.12,0-2.9,1-.58,1.81l3.8-.2v5.68c0,.3.29.42.88.42v.12h-3.23v-.12c.59,0,.88-.12.88-.42V93.41h-2.35v5.34c0,.3.3.42.88.42v.12h-3.24v-.12C142,99.17,142.31,99.05,142.31,98.75Z"/><path class="cls-4" d="M153.88,95.19c0-1-.39-1.46-.9-1.46s-1.27.61-1.79,1.64v3.38c0,.3.3.42.89.42v.12h-3.24v-.12c.59,0,.89-.12.89-.42v-5h-.58v-.12l2-.6v2c.69-1.34,1.6-2,2.35-2a1.87,1.87,0,0,1,1.81,2.12v3.56c0,.3.29.42.88.42v.12H153v-.12c.59,0,.88-.12.88-.42Z"/><path class="cls-4" d="M159.62,98.79a1.94,1.94,0,0,0,2-1.87h.12a2.51,2.51,0,0,1-2.65,2.55,2.92,2.92,0,0,1-2.93-3.19,3.08,3.08,0,0,1,2.94-3.2,2.7,2.7,0,0,1,2.69,2.85h-4.15v.34C157.65,98.07,158.63,98.79,159.62,98.79Zm.69-3.11c0-1.67-.48-2.48-1.2-2.48s-1.35.91-1.45,2.59Z"/><path class="cls-4" d="M226.82,99.29v-.12c.59,0,.79-.12.79-.42V91.44c0-.3-.2-.42-.79-.42V90.9h3.09c4.94,0,5.38,8.39,0,8.39Zm3.09-.12c3.29,0,3.11-8.15,0-8.15h-.82v8.15Z"/><path class="cls-4" d="M237.48,98.79a1.94,1.94,0,0,0,2-1.87h.12A2.51,2.51,0,0,1,237,99.47,2.92,2.92,0,0,1,234,96.28a3.08,3.08,0,0,1,2.94-3.2,2.7,2.7,0,0,1,2.69,2.85h-4.15v.34C235.52,98.07,236.5,98.79,237.48,98.79Zm.7-3.11c0-1.67-.48-2.48-1.2-2.48s-1.35.91-1.45,2.59Z"/><path class="cls-4" d="M240.59,94.67c-.43-.94-.94-1.26-1.4-1.26v-.12h3.43v.12c-1,0-.89.17-.57.89l1.34,3c1-3.06,1.22-3.94.3-3.94v-.12h2.37v.12c-.92,0-1.44.93-2,2.46l-1.26,3.42h-.13Z"/><path class="cls-4" d="M249,98.79a1.94,1.94,0,0,0,2-1.87h.12a2.5,2.5,0,0,1-2.65,2.55,2.92,2.92,0,0,1-2.92-3.19,3.07,3.07,0,0,1,2.93-3.2,2.7,2.7,0,0,1,2.69,2.85h-4.15v.34C247.06,98.07,248.05,98.79,249,98.79Zm.69-3.11c0-1.67-.48-2.48-1.2-2.48s-1.35.91-1.45,2.59Z"/><path class="cls-4" d="M254.75,99.17v.12h-3.24v-.12c.59,0,.89-.12.89-.42V91h-.57V90.9l2-.6v8.45C253.86,99.05,254.16,99.17,254.75,99.17Z"/><path class="cls-4" d="M255.05,96.27a3,3,0,1,1,3,3.2A3.06,3.06,0,0,1,255.05,96.27Zm4.6,0c0-1.94-.57-3.07-1.56-3.07s-1.56,1.13-1.56,3.07.56,3.08,1.56,3.08S259.65,98.22,259.65,96.27Z"/><path class="cls-4" d="M261.88,93.8h-.57v-.12l2-.6v1.19a2.25,2.25,0,0,1,1.94-1.19A2.89,2.89,0,0,1,268,96.23a3.06,3.06,0,0,1-3.22,3.24,2.44,2.44,0,0,1-1.4-.38V101c0,.3.29.42.88.42v.12H261v-.12c.59,0,.89-.12.89-.42Zm1.47,4.36a1.5,1.5,0,0,0,1.34,1.19c1.21,0,1.81-1.64,1.81-3.23s-.5-2.84-1.54-2.84a2,2,0,0,0-1.61,1.25Z"/><path class="cls-4" d="M324.34,99.29v-.12c.59,0,.79-.12.79-.42V91.44c0-.3-.2-.42-.79-.42V90.9h3.1c4.94,0,5.37,8.39,0,8.39Zm3.1-.12c3.28,0,3.1-8.15,0-8.15h-.83v8.15Z"/><path class="cls-4" d="M335,98.79a1.94,1.94,0,0,0,2-1.87h.12a2.51,2.51,0,0,1-2.65,2.55,2.92,2.92,0,0,1-2.93-3.19,3.08,3.08,0,0,1,2.94-3.2,2.7,2.7,0,0,1,2.69,2.85H333v.34C333,98.07,334,98.79,335,98.79Zm.69-3.11c0-1.67-.48-2.48-1.2-2.48s-1.35.91-1.45,2.59Z"/><path class="cls-4" d="M340.73,99.17v.12h-3.24v-.12c.59,0,.89-.12.89-.42V91h-.57V90.9l2-.6v8.45C339.84,99.05,340.14,99.17,340.73,99.17Z"/><path class="cls-4" d="M343.44,98.75c0,.3.3.42.89.42v.12h-3.24v-.12c.59,0,.89-.12.89-.42v-5h-.58v-.12l2-.6Zm-.72-7.85a.86.86,0,0,1,.8.91.81.81,0,1,1-.8-.91Z"/><path class="cls-4" d="M345.68,94.67c-.44-.94-.95-1.26-1.41-1.26v-.12h3.43v.12c-.94,0-.88.17-.57.89l1.34,3c1-3.06,1.22-3.94.3-3.94v-.12h2.37v.12c-.92,0-1.43.93-2,2.46l-1.26,3.42h-.13Z"/><path class="cls-4" d="M354.11,98.79a1.94,1.94,0,0,0,2-1.87h.12a2.51,2.51,0,0,1-2.65,2.55,2.92,2.92,0,0,1-2.93-3.19,3.08,3.08,0,0,1,2.94-3.2,2.7,2.7,0,0,1,2.68,2.85h-4.15v.34C352.14,98.07,353.13,98.79,354.11,98.79Zm.7-3.11c0-1.67-.48-2.48-1.2-2.48s-1.36.91-1.45,2.59Z"/><path class="cls-4" d="M357.48,98.75v-5h-.57v-.12l2-.6v2a4,4,0,0,1,2.95-2l.25,1.88a2.27,2.27,0,0,0-1.19-.28,2.77,2.77,0,0,0-2,.76v3.32c0,.3.3.42.89.42v.12H356.6v-.12C357.19,99.17,357.48,99.05,357.48,98.75Z"/><circle class="cls-5" cx="196.34" cy="95.01" r="10.32"/><path class="cls-4" d="M169.46,56.07v-.13c.58,0,.79-.12.79-.41V48.21c0-.3-.21-.42-.79-.42v-.12h3.09c4.94,0,5.37,8.4,0,8.4Zm3.09-.13c3.29,0,3.11-8.15,0-8.15h-.83v8.15Z"/><path class="cls-4" d="M180.12,55.56a1.94,1.94,0,0,0,2-1.87h.12a2.51,2.51,0,0,1-2.65,2.55,2.92,2.92,0,0,1-2.93-3.19,3.08,3.08,0,0,1,2.94-3.2,2.71,2.71,0,0,1,2.69,2.86h-4.15V53C178.16,54.84,179.14,55.56,180.12,55.56Zm.7-3.11c0-1.66-.48-2.48-1.2-2.48s-1.36.91-1.45,2.59Z"/><path class="cls-4" d="M183.5,55.53V50.19h-.58v-.12c.37,0,.48-.07.48-.67A2.34,2.34,0,0,1,186,47.29a3.21,3.21,0,0,1,2.06.68l-.44,1.27h-.12c0-.72-1.06-1-1.95-1-2.11,0-2.89,1-.58,1.81l3.81-.2v5.69c0,.29.28.41.87.41v.13h-3.23v-.13c.59,0,.88-.12.88-.41V50.19H185v5.34c0,.29.3.41.89.41v.13h-3.24v-.13C183.2,55.94,183.5,55.82,183.5,55.53Z"/><path class="cls-4" d="M195.06,52c0-1-.38-1.46-.9-1.46s-1.27.61-1.78,1.64v3.39c0,.29.3.41.88.41v.13H190v-.13c.59,0,.89-.12.89-.41v-5h-.57v-.12l2-.6v2c.68-1.33,1.59-2,2.35-2A1.87,1.87,0,0,1,196.54,52v3.57c0,.29.28.41.87.41v.13h-3.22v-.13c.58,0,.87-.12.87-.41Z"/><path class="cls-4" d="M200.13,55.53c0,.29.3.41.88.41v.13h-3.23v-.13c.58,0,.88-.12.88-.41v-5h-.57v-.12l2-.6Zm-.72-7.86a.92.92,0,1,1-.82.91A.86.86,0,0,1,199.41,47.67Z"/><path class="cls-4" d="M203.93,55.66a1.14,1.14,0,0,0,1-.85h.12a1.81,1.81,0,0,1-1.75,1.42,1.38,1.38,0,0,1-1.45-1.41V50.19h-.48v-.12l1.83-1.5h.12v1.5h1.26v.12h-1.26v4.65C203.33,55.42,203.61,55.66,203.93,55.66Z"/><path class="cls-4" d="M207.71,55.53c0,.29.3.41.89.41v.13h-3.24v-.13c.59,0,.89-.12.89-.41v-5h-.58v-.12l2-.6ZM207,47.67a.92.92,0,1,1-.81.91A.86.86,0,0,1,207,47.67Z"/><path class="cls-4" d="M208.9,53a3,3,0,1,1,3,3.2A3.06,3.06,0,0,1,208.9,53Zm4.59,0c0-1.94-.56-3.07-1.56-3.07s-1.55,1.13-1.55,3.07.56,3.08,1.55,3.08S213.49,55,213.49,53Z"/><path class="cls-4" d="M220.3,52c0-1-.39-1.46-.9-1.46s-1.27.61-1.79,1.64v3.39c0,.29.3.41.89.41v.13h-3.24v-.13c.59,0,.89-.12.89-.41v-5h-.58v-.12l2-.6v2c.68-1.33,1.6-2,2.35-2A1.87,1.87,0,0,1,221.77,52v3.57c0,.29.29.41.88.41v.13h-3.23v-.13c.59,0,.88-.12.88-.41Z"/><path class="cls-4" d="M10.19,77.37l2,2c.21.22.57,0,1-.39l.09.09L11,81.33l-.09-.09c.42-.41.48-.64.26-.85L6,75.21c-.21-.21-.44-.15-.86.27L5,75.39l2.7-2.7c2.18-2.18,5.75,1.4,3.58,3.58Zm.44-.61c1.56-1.56-1.84-5-3.41-3.41l-.52.52,3.41,3.41Z"/><path class="cls-4" d="M15.75,75.76l-3.5-3.5-.41.41-.09-.09,1-1.86,1.41,1.4a4,4,0,0,1,.67-3.5l1.51,1.16a2.18,2.18,0,0,0-1,.64,2.78,2.78,0,0,0-.89,2l2.35,2.35c.21.21.51.08.93-.33l.08.08L15.5,76.77l-.08-.08C15.83,76.27,16,76,15.75,75.76Z"/><path class="cls-4" d="M17.46,70.54a3,3,0,1,1,4.41.11A3.09,3.09,0,0,1,17.46,70.54Zm3.25-3.25c-1.37-1.38-2.57-1.77-3.27-1.07s-.31,1.9,1.07,3.27,2.57,1.78,3.28,1.08S22.09,68.67,20.71,67.29Z"/><path class="cls-4" d="M18.59,62l-.34.33-.09-.08,1-1.81,2.65,2.65A2.31,2.31,0,0,1,22.44,61c1.21-1.2,2.9-.91,4.1.28s1.68,3,.26,4.46a2.06,2.06,0,0,1-1.79.6l.3.29L24.56,68Zm6.22,4.13a1.69,1.69,0,0,0,1.64-.34c.85-.86.13-2.38-.8-3.31s-2.44-1.46-3.32-.59A1.42,1.42,0,0,0,22,63.29Z"/><path class="cls-4" d="M31.19,60.91l.09.09L29,63.29l-.09-.09c.42-.41.54-.71.33-.92l-5.47-5.47-.41.41-.08-.09,1-1.86,6,6C30.48,61.46,30.77,61.33,31.19,60.91Z"/><path class="cls-4" d="M33.57,58a2,2,0,0,0,.1-2.75l.08-.09a2.51,2.51,0,0,1-.07,3.68,2.91,2.91,0,0,1-4.32-.18,3.07,3.07,0,0,1-.19-4.34,2.7,2.7,0,0,1,3.92.11l-2.93,2.94.23.24C31.67,58.88,32.87,58.69,33.57,58Zm-1.71-2.69c-1.19-1.17-2.09-1.42-2.6-.91s-.32,1.6.8,2.86Z"/><path class="cls-4" d="M37.23,49.05l.23.2,2.4,2.4c.21.21.5.09.92-.32l.08.08-2.28,2.28-.08-.08c.41-.42.53-.71.32-.92l-2.4-2.4c-.63-.62-1.39-.93-1.79-.53a2.52,2.52,0,0,0-.14,2.32L37,54.55c.21.21.51.08.92-.33l.09.08-2.29,2.29-.09-.08c.42-.42.55-.71.34-.93l-3.5-3.49L32,52.5l-.08-.09,1-1.86,1.35,1.35c-.43-1.4-.27-2.47.24-3a2.09,2.09,0,0,1,2.52,0,3,3,0,0,1,.29-2.82,2,2,0,0,1,2.78.22l2.52,2.52c.21.21.51.09.92-.33l.09.09L41.38,50.9l-.09-.09c.42-.42.55-.71.33-.92l-2.51-2.52c-.7-.7-1.32-.77-1.68-.41A2.34,2.34,0,0,0,37.23,49.05Z"/><path class="cls-4" d="M355.94,45.27c-1.2,1.21,1,5.63-.27,6.94-1,1-2.88.34-4-.76a4.72,4.72,0,0,1-1.4-2.82l2.11-1.19.1.11c-1.36,1.37-1.57,3-.63,3.91a1.54,1.54,0,0,0,2.23.18c1.33-1.33-1-5.56.47-7.06.88-.89,2.36-.44,3.42.62a4.91,4.91,0,0,1,1.44,2.88l-2.08,1.23-.1-.1c1.35-1.33,1.6-3,.64-3.94A1.25,1.25,0,0,0,355.94,45.27Z"/><path class="cls-4" d="M356.55,51.78a3,3,0,1,1-.12,4.41A3.06,3.06,0,0,1,356.55,51.78ZM359.8,55c1.37-1.38,1.77-2.57,1.06-3.28s-1.9-.3-3.27,1.07-1.78,2.58-1.08,3.28S358.41,56.41,359.8,55Z"/><path class="cls-4" d="M361,60.32l-.08.09-2.29-2.29.09-.09c.41.42.71.54.92.33l5.47-5.47-.41-.4.09-.09,1.86,1-6,6C360.44,59.61,360.57,59.91,361,60.32Z"/><path class="cls-4" d="M369.86,60.58l-4,4,.4.4-.08.08-1.87-1,1.27-1.27a2.86,2.86,0,0,1-2.89-.35,1.87,1.87,0,0,1,.25-2.72l2.52-2.52-.41-.41.09-.09,1.86,1-3,3c-.69.69-.76,1.2-.39,1.58a2.49,2.49,0,0,0,2.22.24L368.31,60l-.4-.39.08-.09Z"/><path class="cls-4" d="M368.21,67.14a1.14,1.14,0,0,0,1.32.11l.08.09a1.8,1.8,0,0,1-2.24-.23,1.38,1.38,0,0,1,0-2l3.27-3.27-.33-.34.08-.08,2.36.23.08.09-1.06,1.06.89.89-.08.08-.89-.89-3.29,3.29C368,66.55,368,66.92,368.21,67.14Z"/><path class="cls-4" d="M371,69.72c-.21.22-.08.51.33.93l-.08.08-2.29-2.29.08-.08c.42.41.71.54.93.33l3.51-3.51-.41-.41.09-.08,1.86,1Zm5-6.06a.93.93,0,1,1-1.22.07A.86.86,0,0,1,376,63.66Z"/><path class="cls-4" d="M373.58,68.81a3,3,0,1,1-.12,4.41A3.06,3.06,0,0,1,373.58,68.81Zm3.24,3.25c1.38-1.38,1.78-2.57,1.07-3.28s-1.9-.3-3.27,1.07-1.78,2.58-1.08,3.28S375.44,73.44,376.82,72.06Z"/><path class="cls-4" d="M382.4,76.11c.68-.68.76-1.31.4-1.68a2.58,2.58,0,0,0-2.43-.1L378,76.72c-.21.22-.08.51.33.93l-.08.08-2.29-2.29.08-.08c.42.41.71.54.93.33l3.5-3.5-.41-.41.09-.08,1.86,1-1.43,1.44c1.42-.46,2.57-.32,3.1.22a1.87,1.87,0,0,1-.22,2.78l-2.52,2.52c-.21.21-.09.5.33.91l-.09.09-2.28-2.28.09-.09c.41.42.7.54.91.32Z"/><path class="cls-6" d="M187.17,95a9.18,9.18,0,1,0,2.69-6.48A9.13,9.13,0,0,0,187.17,95Zm19.66,0a10.48,10.48,0,1,1-3.07-7.41A10.53,10.53,0,0,1,206.83,95Zm-15.07-.65a.68.68,0,0,0-.47.19.66.66,0,0,0-.19.46.65.65,0,0,0,.66.66h7.59l-2.82,2.81a.6.6,0,0,0-.14.21.74.74,0,0,0,0,.25.75.75,0,0,0,0,.26.6.6,0,0,0,.14.21.74.74,0,0,0,.22.14.7.7,0,0,0,.25,0,.74.74,0,0,0,.25,0,.6.6,0,0,0,.21-.14l3.93-3.93a.66.66,0,0,0,.15-.22.7.7,0,0,0,.05-.25.74.74,0,0,0-.05-.25.62.62,0,0,0-.15-.21l-3.93-3.93a.8.8,0,0,0-.21-.15.74.74,0,0,0-.25,0,.7.7,0,0,0-.25,0,1.07,1.07,0,0,0-.22.15.6.6,0,0,0-.14.21.65.65,0,0,0,0,.5.6.6,0,0,0,.14.21l2.82,2.82Z"/><circle class="cls-7" cx="10.82" cy="95.01" r="10.32"/><path class="cls-6" d="M1.64,95a9.18,9.18,0,1,0,2.69-6.48A9.17,9.17,0,0,0,1.64,95ZM21.3,95a10.48,10.48,0,1,1-3.07-7.41A10.49,10.49,0,0,1,21.3,95ZM6.23,94.36a.66.66,0,0,0-.46.19.62.62,0,0,0-.19.46.64.64,0,0,0,.19.47.66.66,0,0,0,.46.19h7.59L11,98.48a.6.6,0,0,0-.14.21.56.56,0,0,0,0,.25.58.58,0,0,0,0,.26.64.64,0,0,0,.35.35.74.74,0,0,0,.25,0,.66.66,0,0,0,.25,0,.64.64,0,0,0,.22-.14l3.93-3.93a.64.64,0,0,0,.14-.22.53.53,0,0,0,0-.25.56.56,0,0,0,0-.25.6.6,0,0,0-.14-.21l-3.93-3.93a.86.86,0,0,0-.22-.15.66.66,0,0,0-.25,0,.74.74,0,0,0-.25,0,.8.8,0,0,0-.21.15.6.6,0,0,0-.14.21.65.65,0,0,0,0,.5.6.6,0,0,0,.14.21l2.81,2.82Z"/><circle class="cls-8" cx="383.1" cy="95.01" r="10.32"/><path class="cls-6" d="M373.92,95a9.18,9.18,0,1,0,2.69-6.48A9.17,9.17,0,0,0,373.92,95Zm19.66,0a10.48,10.48,0,1,1-3.07-7.41A10.49,10.49,0,0,1,393.58,95Zm-15.07-.65a.65.65,0,0,0-.65.65.68.68,0,0,0,.19.47.66.66,0,0,0,.46.19h7.59l-2.81,2.81a.6.6,0,0,0-.14.21.74.74,0,0,0,0,.25.75.75,0,0,0,0,.26.64.64,0,0,0,.35.35.74.74,0,0,0,.25,0,.75.75,0,0,0,.26,0,.6.6,0,0,0,.21-.14l3.93-3.93a.64.64,0,0,0,.14-.22.53.53,0,0,0,0-.25.56.56,0,0,0,0-.25.6.6,0,0,0-.14-.21l-3.93-3.93a.8.8,0,0,0-.21-.15.75.75,0,0,0-.26,0,.74.74,0,0,0-.25,0,.8.8,0,0,0-.21.15.6.6,0,0,0-.14.21.65.65,0,0,0,0,.5.6.6,0,0,0,.14.21l2.81,2.82Z"/></svg>