<svg xmlns="http://www.w3.org/2000/svg" xmlns:xlink="http://www.w3.org/1999/xlink" width="43" height="43" viewBox="0 0 43 43"><defs><style>.cls-1{fill:none;}.cls-2{fill:#fcc1e1;}.cls-3{clip-path:url(#clip-path);}.cls-4{fill:#f0feef;}.cls-5{fill:#69d2d7;}.cls-6{fill:#0e183d;}</style><clipPath id="clip-path"><circle class="cls-1" cx="21.5" cy="21.5" r="21"/></clipPath></defs><g id="Layer_3" data-name="Layer 3"><circle class="cls-2" cx="21.5" cy="20.5" r="20.5"/><g class="cls-3"><path class="cls-4" d="M3.86,6.47s2.74,3.65,6.85,2.44,9.6-6.09,11-4.88S32.46,9.4,33.25,9.15,39.12,6.5,39.12,6.5l5.39-2.66L45,41.78-3,43V4S1.11,8.91,3.86,6.47Z"/><path class="cls-5" d="M-3,18.63s7.06,7.52,14.12,3.22,8.47-5.37,12.7-3.22,7.06,6.44,12.71,3.22S45,18.63,45,18.63V43H-3Z"/><path class="cls-6" d="M-3,32s7.06,3.4,14.12,1.46S19.59,31,23.82,32s7.06,2.91,12.71,1.46A38.32,38.32,0,0,1,45,32V43H-3Z"/></g></g></svg>