<svg xmlns="http://www.w3.org/2000/svg" width="34.24mm" height="35.01mm" viewBox="0 0 97.05 99.23"><defs><style>.cls-1{fill:#231f20;}</style></defs><g id="Layer_2" data-name="Layer 2"><g id="Layer_1-2" data-name="Layer 1"><path class="cls-1" d="M45.72,5.82,45.83,9c0,.34.87.45,1.53.43v.13L44,9.67V9.53c.66,0,.89-.16.88-.5L44.61.72c0-.34-.25-.47-.91-.44V.14L47.61,0c3-.11,3.22,5.64.21,5.75Zm1.49-.19C49.8,5.54,49.62.07,47,.16l-1.5,0,.2,5.48Z"/><path class="cls-1" d="M53.09,9.45a2.3,2.3,0,0,0,2.62-2.11h.14A2.72,2.72,0,0,1,52.73,9.9c-1.54-.15-3-1.41-2.8-3.86a3.36,3.36,0,0,1,3.53-3.3A2.93,2.93,0,0,1,56,6.25l-5.09-.51c0,.12,0,.24,0,.37C50.64,8.28,51.83,9.32,53.09,9.45Zm2-3.58c.17-1.87-.6-2.89-1.6-3s-2.21.81-2.56,2.72Z"/><path class="cls-1" d="M59,10.56a2.3,2.3,0,0,0,2.9-1.69l.13,0A2.72,2.72,0,0,1,58.58,11a3.22,3.22,0,0,1-2.19-4.24,3.36,3.36,0,0,1,4-2.74,2.93,2.93,0,0,1,2,3.85l-5-1.27-.09.37C56.75,9,57.78,10.25,59,10.56ZM61.5,7.32c.46-1.83-.16-2.95-1.13-3.2s-2.3.47-2.94,2.3Z"/><path class="cls-1" d="M64,12.78c-1.46-.61-2.2-2.29-1.32-4.4,1-2.33,2.82-2.81,4.46-2.12A3,3,0,0,1,69,8.19L67.8,9.74l-.15-.06c1.11-1.86.28-2.93-.64-3.31s-2.66.4-3.47,2.34-.3,3.28.87,3.77a2.38,2.38,0,0,0,3.08-1.36l.13.05A2.74,2.74,0,0,1,64,12.78Z"/><path class="cls-1" d="M73.52,5.92l-3,4.77c1.58-1,3-1,3.78-.56s.76,1.54,0,2.82l-2.13,3.44c-.18.29.2.68.77,1l-.08.12-2.82-1.75.07-.12c.57.35,1.09.52,1.27.23l2.13-3.44c.67-1.09.69-1.72.08-2.1s-2.06-.17-3.2.6l-1.94,3.12c-.18.29.21.7.78,1.05l-.07.11-2.84-1.75.07-.12c.57.35,1.1.52,1.28.23l4.63-7.47-.73-.45.07-.11Z"/><path class="cls-1" d="M76.64,12.08l.09-.1,2.74,2.39-.09.1c-1-.89-1.46-.93-1.77.14l-1,4,.47-.27c3.08-1.78,4-2.37,2.78-3.47l.09-.1L82,16.6l-.09.1c-.52-.45-1.13-.33-2.5.43l-3.75,2.12c-1.85,1-3,1.85-4.78.33l.77-1a2,2,0,0,0,.61,1c.65.58,1.34.76,3.07-.33l1.46-5.15C77.13,13,77.13,12.51,76.64,12.08Z"/><path class="cls-1" d="M85,20.94l-.49-.69.11-.08,1.58,1L85,22.06a2.66,2.66,0,0,1,2.54,1.05c1,1.39.11,3.18-1.34,4.21s-3.63,1.34-4.92-.48A2.42,2.42,0,0,1,80.8,25l-2,1.4c-.28.2-.08.72.31,1.27l-.11.07L77.1,25.06l.11-.08c.39.55.81.91,1.09.72Zm-3.34,3.5a1.79,1.79,0,0,0-.35,2.2c.94,1.32,3,.9,4.47-.15,1.32-.94,2.18-2.39,1.34-3.57a2.39,2.39,0,0,0-2.35-.69Z"/><path class="cls-1" d="M86.35,27.81a3.35,3.35,0,1,1-1.83,4.59A3.42,3.42,0,0,1,86.35,27.81Zm2.5,5.2c2-1,2.58-2.67,2.09-3.69s-2.16-1.65-4.19-.68-2.59,2.68-2.1,3.7S86.81,34,88.85,33Z"/><path class="cls-1" d="M87.32,37.23c-.32.11-.28.67-.07,1.3l-.13,0-1.05-3.16.13,0c.21.63.51,1.1.83,1l5.35-1.78-.27-.81.13-.05,1.21,1.47ZM95.65,34a.71.71,0,0,1-.51.84.65.65,0,1,1-.41-1.23A.72.72,0,0,1,95.65,34Z"/><path class="cls-1" d="M92.86,43.2c1.22-.22,1.73-.73,1.63-1.29-.14-.75-1.37-1.58-2.65-1.95l-3.57.65c-.33.06-.37.62-.25,1.28l-.13,0-.6-3.28.13,0c.12.66.35,1.17.69,1.11l5.53-1-.15-.84.13,0,1,1.62-2.48.45c1.61.48,2.82,1.41,3,2.27s-.52,1.66-2.09,1.94l-4,.73c-.34.06-.38.61-.26,1.27l-.13,0-.6-3.27.13,0c.12.65.35,1.15.69,1.09Z"/><path class="cls-1" d="M88.9,47.91a1.28,1.28,0,0,0,1.18,1v.14c-1.11-.18-1.62-.8-1.65-1.44a1.45,1.45,0,0,1,1.48-1.45l5.24-.28,0-.54h.14L97,46.6v.13l-1.7.1.08,1.42h-.14l-.08-1.43-5.27.29C89.19,47.16,88.88,47.52,88.9,47.91Z"/><path class="cls-1" d="M94,49.55c1.16.07,1.68,1.42,1.61,2.72a2.79,2.79,0,0,1-1.11,2.29L92.68,54V53.8c1.68.52,2.66-.38,2.72-1.48,0-.91-.5-1.9-1.24-1.94-1.61-.09-1.87,4.43-4.08,4.3-1.18-.06-1.77-1.41-1.7-2.77a4.23,4.23,0,0,1,1-2.62l2,.65v.17c-2-.58-2.86.75-2.92,1.74s.55,2,1.34,2C91.61,54,91.78,49.43,94,49.55Z"/><path class="cls-1" d="M50.67,93.44l-.06-3.17c0-.34-.86-.46-1.52-.45v-.13l3.34-.07v.14c-.67,0-.89.15-.89.49l.17,8.31c0,.34.24.47.91.46v.13l-3.92.08c-3,.06-3.13-5.69-.12-5.75Zm-1.5.17c-2.58,0-2.49,5.53.11,5.47l1.5,0-.11-5.47Z"/><path class="cls-1" d="M43.35,89.7a2.31,2.31,0,0,0-2.65,2.06l-.14,0a2.72,2.72,0,0,1,3.16-2.49c1.54.18,3,1.46,2.74,3.91a3.37,3.37,0,0,1-3.59,3.24,2.92,2.92,0,0,1-2.46-3.55l5.08.6,0-.38C45.79,90.9,44.61,89.85,43.35,89.7Zm-2,3.54c-.21,1.87.55,2.91,1.55,3s2.21-.77,2.6-2.67Z"/><path class="cls-1" d="M37.46,88.49a2.31,2.31,0,0,0-2.94,1.64l-.13,0a2.72,2.72,0,0,1,3.5-2c1.5.41,2.77,1.9,2.12,4.28a3.36,3.36,0,0,1-4,2.67,2.93,2.93,0,0,1-1.91-3.88L39,92.51l.1-.36C39.69,90,38.68,88.82,37.46,88.49Zm-2.56,3.2c-.48,1.82.12,3,1.09,3.22s2.31-.43,3-2.25Z"/><path class="cls-1" d="M32.52,86.19c1.45.64,2.16,2.33,1.24,4.43-1,2.31-2.86,2.76-4.49,2a3,3,0,0,1-1.85-2l1.24-1.53.15.06c-1.15,1.84-.33,2.92.58,3.32s2.67-.36,3.51-2.28.36-3.28-.8-3.79A2.4,2.4,0,0,0,29,87.8l-.12-.06A2.73,2.73,0,0,1,32.52,86.19Z"/><path class="cls-1" d="M22.87,92.89l3-4.72c-1.59,1-3,1-3.79.5s-.73-1.55.08-2.81l2.18-3.41c.19-.28-.19-.69-.75-1l.08-.11,2.79,1.79-.07.12c-.56-.36-1.08-.53-1.27-.25L23,86.36c-.69,1.07-.72,1.7-.12,2.09s2.06.2,3.22-.54l2-3.1c.19-.28-.2-.69-.76-1l.07-.12,2.81,1.8-.07.12c-.56-.36-1.1-.54-1.28-.25L24.08,92.7l.72.46-.07.12Z"/><path class="cls-1" d="M19.85,86.69l-.09.1-2.7-2.44.09-.1c1,.91,1.45,1,1.77-.11l1.12-4-.48.26c-3.1,1.74-4.08,2.31-2.83,3.43l-.09.1-2.1-1.89.09-.1c.52.47,1.13.36,2.52-.39l3.78-2.06c1.87-1,3.06-1.8,4.78-.25l-.78,1a2.13,2.13,0,0,0-.59-1c-.65-.58-1.33-.78-3.08.29l-1.54,5.12C19.38,85.79,19.37,86.25,19.85,86.69Z"/><path class="cls-1" d="M11.64,77.69l.48.71-.11.07L10.45,77.4l1.2-.83a2.66,2.66,0,0,1-2.52-1.09c-1-1.41-.06-3.18,1.41-4.19s3.64-1.28,4.91.56a2.41,2.41,0,0,1,.45,1.81l2-1.37c.29-.19.09-.72-.29-1.27l.11-.08L19.6,73.7l-.11.07c-.38-.55-.8-.92-1.08-.73ZM15,74.25a1.79,1.79,0,0,0,.38-2.2c-.92-1.33-3-1-4.47.08-1.34.92-2.22,2.35-1.4,3.55a2.42,2.42,0,0,0,2.35.72Z"/><path class="cls-1" d="M10.4,70.81a3.35,3.35,0,1,1-2.8-6.07,3.35,3.35,0,1,1,2.8,6.07ZM8,65.57c-2,.93-2.62,2.63-2.15,3.66S8,70.91,10,70s2.64-2.64,2.17-3.66S10,64.62,8,65.57Z"/><path class="cls-1" d="M1.2,64.46a.7.7,0,0,1,.52-.83.7.7,0,0,1,.9.39.69.69,0,0,1-.51.84A.69.69,0,0,1,1.2,64.46Zm8.38-3.09c.32-.11.29-.67.09-1.3l.13,0,1,3.18-.13,0c-.2-.64-.49-1.12-.82-1L4.47,63.92l.26.82-.13,0L3.42,63.3Z"/><path class="cls-1" d="M4.14,55.31c-1.22.2-1.75.7-1.65,1.27.12.75,1.34,1.6,2.62,2L8.68,58c.34-.06.38-.62.27-1.28l.14,0L9.64,60,9.5,60c-.11-.66-.33-1.18-.67-1.12l-5.55.92.14.85-.13,0L2.33,59l2.48-.41c-1.6-.51-2.79-1.45-2.94-2.31S2.41,54.66,4,54.39l4-.66c.33,0,.38-.6.27-1.26l.14,0,.54,3.28-.13,0c-.11-.66-.33-1.16-.67-1.1Z"/><path class="cls-1" d="M8.17,50.65A1.28,1.28,0,0,0,7,49.6v-.13c1.1.19,1.6.82,1.63,1.46a1.44,1.44,0,0,1-1.5,1.42l-5.26.2,0,.55H1.76L0,51.83V51.7l1.7-.07L1.65,50.2h.13l.06,1.43,5.28-.21C7.87,51.4,8.18,51,8.17,50.65Z"/><path class="cls-1" d="M3.14,48.93C2,48.85,1.48,47.49,1.58,46.18a2.8,2.8,0,0,1,1.15-2.27l1.75.62v.17c-1.67-.55-2.66.34-2.74,1.44-.06.91.46,1.9,1.21,2,1.61.11,1.95-4.4,4.15-4.24,1.18.09,1.75,1.44,1.65,2.8a4.21,4.21,0,0,1-1.09,2.61l-2-.69v-.16c2,.61,2.88-.71,2.95-1.7s-.51-2-1.3-2C5.56,44.56,5.32,49.09,3.14,48.93Z"/><path class="cls-1" d="M48.55,82.64a33,33,0,1,1,33-33A33.07,33.07,0,0,1,48.55,82.64Zm0-65.53a32.5,32.5,0,1,0,32.5,32.5A32.54,32.54,0,0,0,48.55,17.11Z"/></g></g></svg>