<svg xmlns="http://www.w3.org/2000/svg" width="176.61" height="172.6" viewBox="0 0 176.61 172.6"><defs><style>.cls-1{fill:none;stroke:#000;stroke-miterlimit:10;}</style></defs><g id="Layer_4" data-name="Layer 4"><path class="cls-1" d="M116.4,162.46A78.27,78.27,0,0,1,12.57,52.07"/><path d="M25.16,42.46,28,45.27c.3.3,1.17-.32,1.76-.91l.12.12-3,2.94-.12-.12c.59-.59.67-.91.37-1.21L19.8,38.74c-.3-.3-.63-.21-1.21.38L18.46,39l3.46-3.47C24.59,32.86,29.67,38,27,40.61ZM26.36,41c2.29-2.28-2.55-7.14-4.84-4.84L20.2,37.5,25,42.34Z"/><path d="M28.61,30,27,31.26,30,35.15l2.74-2.44.37.47-3,2.12,3.93,5,1.66-1.44c2.37-2.09,2.35-2.7,1.17-5.07l.13-.1,1.85,3.1-6.46,5.1-.11-.14c.66-.51.78-.83.52-1.16l-6.45-8.15c-.26-.34-.59-.29-1.25.23L25,32.5l6.44-5.09,1.86,2.36-.13.1C31.35,28.32,30.86,28.41,28.61,30Z"/><path d="M45.36,31.43,42.3,28.57l-3.43,1.77,1,4c.2.84.69,1.07,1.82.4l.08.15-2.51,1.49-.09-.15c.4-.23.6-.89.41-1.75L37.19,23.76l1-.61,8.08,7.57a1.43,1.43,0,0,0,1.92.17l.08.15-3.55,2.1L44.66,33C45.41,32.55,46,32.05,45.36,31.43Zm-3.47-3.25L37.4,24l1.44,6.21Z"/><path d="M52,29.24a3.64,3.64,0,0,0,1.76-5.06l.15-.07a4.14,4.14,0,0,1-2,5.75c-6,2.64-11.12-8.39-4.7-11.32a4.72,4.72,0,0,1,4.4.29l.23,2.26-.19.08c-.88-2-2.72-3.24-4.37-2.47C42.48,20.9,46.72,31.56,52,29.24Z"/><path d="M52.43,16.6l0-.16,4-1.13,0,.16c-.8.23-1.77.68-1.65,1.09l1.4,5,5.48-1.79L60.33,15c-.11-.41-1.18-.29-2-.06l0-.17,4-1.12.05.16c-.81.23-1,.47-.92.88l2.82,10c.12.41.44.5,1.24.27l.05.16-4,1.13,0-.16c.8-.23,1.77-.68,1.65-1.09l-1.3-4.64-5.61,1.37,1.37,4.84c.11.41,1.18.28,2,.06l0,.16-4,1.13,0-.16c.8-.23,1-.47.92-.88l-2.83-10C53.56,16.46,53.23,16.37,52.43,16.6Z"/><path d="M64.07,13.39l0-.17,4.88-.58,0,.16c-.86.11-1.78.67-1.2,1.37l3.62,4.47.71-2.23c1.26-3.41,1.19-4.12-.46-3.92l0-.17,4.12-.5,0,.17c-1.08.13-2,.79-3.4,4.51l-.86,2.35L72,23.51c0,.42.78.51,1.55.41l0,.17-4.11.5,0-.17c.77-.1,1.46-.35,1.41-.77l-.53-4.42-4-5A2.65,2.65,0,0,0,64.07,13.39Z"/><path d="M83,19.18l-.25,4c0,.42,1,.66,1.84.71V24l-4.16-.26,0-.17c.83,0,1.13-.1,1.15-.53l.67-10.37c0-.43-.25-.62-1.08-.67v-.17l4.88.32c3.77.24,3.29,7.41-.46,7.17Zm1.88-.05c3.22.21,3.68-6.63.44-6.83l-1.87-.12L83,19Z"/><path d="M93.33,25.43c-7-1.38-4.59-13.73,2.42-12.36S100.39,26.81,93.33,25.43Zm0-.17c5.59,1.09,7.88-10.94,2.35-12S87.82,24.18,93.36,25.26Z"/><path d="M101.78,15.08l0-.17,4,1.21,0,.16c-.8-.24-1.85-.38-2,0l-3,9.94c-.12.41.84.88,1.63,1.12l0,.16-4-1.2.05-.17c.8.24,1.12.16,1.24-.24l3-10C102.81,15.56,102.58,15.32,101.78,15.08Z"/><path d="M104.84,26.33l3.48-8.16-.06-.56c-.05-.6-.46-.77-1-1l.07-.16,1.89.82,2.8,12.19,3.21-7.5c.65-1.52-.71-2.22-1.55-2.58l.06-.16,4,1.72-.07.16a1.56,1.56,0,0,0-2.16,1l-4.1,9.13-.15-.07-2.94-12.51-3.25,7.8c-.52,1.26.71,2.16,1.56,2.53l-.07.15-4-1.72.07-.16A1.59,1.59,0,0,0,104.84,26.33Z"/><path d="M115.75,33.64l.09-.14c.79.5,1.41.57,1.61.25l5.75-9.12-1.26-.72c-2.53-1.43-2.94-.5-4.49,1.52l-.12-.07L119.59,22l8.46,5.33L126,30.8l-.11-.07c1.16-2.26,1.82-3.05-.57-4.71l-1.1-.78-5.75,9.13c-.2.31.13.84.92,1.34l-.09.15Z"/><path d="M129.4,31c-1.55,1.86,2.17,7.82.49,9.84-1,1.25-3.23,1.1-5-.4a6.63,6.63,0,0,1-2.31-3.79L125,35l.16.13c-2.11,2.24-1.39,4.18-.12,5.23a2.49,2.49,0,0,0,3.58,0c1.8-2.16-2.29-7.66-.36-10,1.07-1.28,3.12-.9,4.79.5a6.28,6.28,0,0,1,2.32,3.61l-2.41,1.7-.16-.13c2.06-2.1,1.42-4,.18-5C132,30.16,130.54,29.61,129.4,31Z"/><path d="M138.13,46.69,135,49.15c-.33.27.19,1.2.7,1.85l-.13.11L133,47.84l.13-.11c.52.66.83.78,1.17.51l8.16-6.43c.33-.26.28-.6-.23-1.25l.13-.1,3,3.84c2.34,3-3.32,7.4-5.65,4.45Zm1.29,1.37c2,2.53,7.39-1.69,5.38-4.24l-1.16-1.47-5.38,4.24Z"/><path d="M150.08,51.58l-1-1.78-4.22,2.59,2.1,3-.51.32-1.75-3.22-5.41,3.32,1.24,1.81c1.8,2.61,2.41,2.66,4.9,1.77l.09.14L142.18,61l-4.31-7,.15-.09c.43.71.73.87,1.09.65L148,49.1c.37-.22.36-.56-.08-1.27l.15-.09,4.3,7-2.56,1.57-.09-.14C151.45,54.51,151.42,54,150.08,51.58Z"/><path d="M146.69,68l3.21-2.7-1.36-3.62-4.12.46c-.87.11-1.15.57-.62,1.77l-.15.06-1.19-2.67.16-.07c.18.42.81.7,1.68.61l11-1.06.48,1.11-8.47,7.13a1.43,1.43,0,0,0-.39,1.88l-.16.07-1.67-3.78.16-.06C145.58,68,146,68.62,146.69,68ZM150.33,65l4.73-4-6.34.7Z"/><path d="M148.08,74.9a3.65,3.65,0,0,0,4.82,2.34l0,.16a4.14,4.14,0,0,1-5.46-2.69c-1.91-6.3,9.64-10.06,11.79-3.34a4.75,4.75,0,0,1-.8,4.34l-2.28,0-.06-.2c2.11-.64,3.54-2.32,3-4C157.49,66.43,146.41,69.38,148.08,74.9Z"/><path d="M160.59,76.81l.17,0,.65,4.12-.17,0c-.13-.82-.46-1.83-.88-1.77l-5.1.81,1.13,5.66,4.87-.77c.42-.07.42-1.14.29-2l.17,0,.65,4.1-.17,0c-.13-.82-.34-1.08-.76-1L151.17,87.6c-.42.07-.55.38-.42,1.2l-.16,0-.65-4.1.17,0c.13.82.46,1.83.88,1.77l4.76-.76L155.06,80l-5,.79c-.42.07-.42,1.14-.29,2l-.17,0L149,78.65l.16,0c.13.83.35,1.09.77,1L160.18,78C160.6,78,160.72,77.63,160.59,76.81Z"/><path d="M162.39,88.74h.17v4.92h-.17c0-.87-.45-1.85-1.22-1.36l-4.86,3.07,2.13,1c3.24,1.66,4,1.68,4,0h.17v4.15h-.17c0-1.09-.55-2-4.08-3.9l-2.23-1.14h-4.68c-.43,0-.6.72-.6,1.5h-.17V92.81h.16c0,.78.18,1.5.6,1.5h4.45l5.41-3.41A2.66,2.66,0,0,0,162.39,88.74Z"/><path d="M154.45,106.83l-3.91-.71c-.42-.07-.77.94-.92,1.76l-.17,0,.74-4.1.17,0c-.15.82,0,1.13.38,1.21L161,106.82c.42.08.64-.17.79-1l.17,0-.87,4.82c-.67,3.71-7.74,2.42-7.08-1.28Zm-.17,1.87c-.57,3.18,6.17,4.41,6.74,1.21l.34-1.84-6.75-1.21Z"/><path d="M147.07,116.41c2.16-6.83,14.16-3,12,3.81S144.9,123.26,147.07,116.41Zm.16,0c-1.72,5.43,10,9.07,11.68,3.71S148.94,111.08,147.23,116.46Z"/><path d="M156.39,126l.16.07-1.66,3.82-.15-.06c.33-.77.59-1.8.2-2l-9.54-4.13c-.39-.17-1,.73-1.29,1.5l-.16-.07,1.66-3.83.15.07c-.33.77-.29,1.1.1,1.27l9.54,4.13C155.79,126.93,156.06,126.74,156.39,126Z"/><path d="M144.86,127.75l7.7,4.38h.56c.6,0,.82-.37,1.1-.84l.14.08-1,1.79-12.44,1.38,7.09,4c1.44.83,2.29-.45,2.74-1.24l.15.08-2.17,3.77-.14-.08a1.57,1.57,0,0,0-.73-2.26l-8.6-5.12.09-.15,12.76-1.48L144.71,128c-1.19-.67-2.23.46-2.69,1.25l-.15-.08L144,125.4l.15.08A1.6,1.6,0,0,0,144.86,127.75Z"/><path d="M136.35,137.73l.14.11c-.59.73-.73,1.34-.43,1.57l8.42,6.74.85-1.17c1.71-2.36.83-2.86-1-4.64l.08-.1,3.12,2.62-6.25,7.81L138,148.2l.09-.1c2.11,1.4,2.82,2.15,4.74,0l.9-1-8.43-6.74c-.29-.23-.85,0-1.44.77l-.13-.11Z"/><path d="M137.48,151.59c-1.67-1.75-8,1.28-9.84-.62-1.13-1.18-.73-3.32,1-4.94a6.62,6.62,0,0,1,4-1.87l1.38,2.59-.15.14c-2-2.34-4-1.83-5.19-.69a2.47,2.47,0,0,0-.36,3.55c1.94,2,7.87-1.42,9.95.76,1.16,1.2.55,3.2-1,4.71a6.27,6.27,0,0,1-3.85,1.89L132,154.53l.15-.14c1.86,2.28,3.8,1.86,5,.74C138,154.26,138.71,152.87,137.48,151.59Z"/></g></svg>